<?xml version="1.0" encoding="utf-8"?>
<!-- Generator: Adobe Illustrator 16.0.0, SVG Export Plug-In . SVG Version: 6.00 Build 0)  -->
<!DOCTYPE svg PUBLIC "-//W3C//DTD SVG 1.1//EN" "http://www.w3.org/Graphics/SVG/1.1/DTD/svg11.dtd">
<svg version="1.1" id="圖層_1" xmlns="http://www.w3.org/2000/svg" xmlns:xlink="http://www.w3.org/1999/xlink" x="0px" y="0px"
	 width="2900px" height="1900px" viewBox="0 0 2900 1900" enable-background="new 0 0 2900 1900" xml:space="preserve">
<polyline fill="none" stroke="#89592D" stroke-width="8" stroke-miterlimit="10" points="2745.74,689.551 2422.316,1012.974 
	2392.316,1012.974 2338.911,959.567 2000.246,959.567 1858.824,818.146 1728.824,818.146 "/>
<text transform="matrix(1 0 0 1 998.8394 1469.0002)" font-family="'TrebuchetMS-Bold'" font-size="14">Innsbrucker</text>
<text transform="matrix(1 0 0 1 1021.3193 1485.8)" font-family="'TrebuchetMS-Bold'" font-size="14">Platz</text>
<text transform="matrix(1 0 0 1 967.2363 1405.9983)" font-family="'TrebuchetMS'" font-size="14">Rathaus</text>
<text transform="matrix(1 0 0 1 944.5952 1422.7991)" font-family="'TrebuchetMS'" font-size="14">Schöneberg</text>
<text transform="matrix(1 0 0 1 956.6177 1360.0002)" font-family="'TrebuchetMS'" font-size="14">Bayerischer</text>
<text transform="matrix(1 0 0 1 997.7085 1376.8)" font-family="'TrebuchetMS'" font-size="14">Platz</text>
<text transform="matrix(1 0 0 1 531.4951 1440.9417)" font-family="'TrebuchetMS'" font-size="14">Heidelberger Platz</text>
<text transform="matrix(1 0 0 1 793.9229 1373.0002)" font-family="'TrebuchetMS'" font-size="14">Blisse-</text>
<text transform="matrix(1 0 0 1 794.3496 1389.8)" font-family="'TrebuchetMS'" font-size="14">straße</text>
<text transform="matrix(1 0 0 1 638.7266 1342.0002)" font-family="'TrebuchetMS'" font-size="14">Fehrbelliner Platz</text>
<text transform="matrix(1 0 0 1 869.6948 1254.0159)" font-family="'TrebuchetMS'" font-size="14">Spichernstraße</text>
<text transform="matrix(1 0 0 1 863.1948 1332.0159)" font-family="'TrebuchetMS'" font-size="14">Berliner Straße</text>
<text transform="matrix(1 0 0 1 877 1294.0002)" font-family="'TrebuchetMS'" font-size="14">Güntzelstraße</text>
<text transform="matrix(1 0 0 1 933.123 1204.7112)" font-family="'TrebuchetMS'" font-size="14">Augsburger</text>
<text transform="matrix(1 0 0 1 933.123 1221.512)" font-family="'TrebuchetMS'" font-size="14">Straße</text>
<text transform="matrix(1 0 0 1 1198.9316 1036.5002)" font-family="'TrebuchetMS'" font-size="14">Mendelssohn-</text>
<text transform="matrix(1 0 0 1 1190.1885 1053.3)" font-family="'TrebuchetMS'" font-size="14">Bartholdz-Park</text>
<line fill="none" stroke="#E02021" stroke-width="8" stroke-miterlimit="10" x1="1308.72" y1="1033.5" x2="1293.72" y2="1033.5"/>
<text transform="matrix(1 0 0 1 1461.1221 894.5979)" fill="#AAAAAA" font-family="'TrebuchetMS'" font-size="14">Unter den </text>
<text transform="matrix(1 0 0 1 1486.1826 911.3987)" fill="#AAAAAA" font-family="'TrebuchetMS'" font-size="14">Linden</text>
<text transform="matrix(1 0 0 1 1408.876 835.9417)" font-family="'TrebuchetMS'" font-size="14">Brandenburger</text>
<text transform="matrix(1 0 0 1 1444.5601 852.7424)" font-family="'TrebuchetMS'" font-size="14">Tor</text>
<text transform="matrix(1 0 0 1 1247.2422 848.4417)" font-family="'TrebuchetMS'" font-size="14">Bundestag</text>
<text transform="matrix(1 0 0 1 622.3076 1290.2971)" font-family="'TrebuchetMS'" font-size="14">Konstanzer</text>
<text transform="matrix(1 0 0 1 651.1074 1307.0969)" font-family="'TrebuchetMS'" font-size="14">Straße</text>
<text transform="matrix(1 0 0 1 603.4082 1178.0159)" font-family="'TrebuchetMS'" font-size="14">Adenauer-</text>
<text transform="matrix(1 0 0 1 636.4941 1194.8157)" font-family="'TrebuchetMS'" font-size="14">platz</text>
<text transform="matrix(0.7071 -0.7071 0.7071 0.7071 573.4365 559.0022)" font-family="'TrebuchetMS'" font-size="14">Jakob-Kaiser-Platz</text>
<text transform="matrix(0.7071 -0.7071 0.7071 0.7071 523.4355 559.0022)" font-family="'TrebuchetMS'" font-size="14">Halemweg</text>
<text transform="matrix(0.7071 -0.7071 0.7071 0.7071 473.4355 559.0022)" font-family="'TrebuchetMS'" font-size="14">Siemensdamm</text>
<text transform="matrix(0.7071 -0.7071 0.7071 0.7071 423.4365 559.0022)" font-family="'TrebuchetMS'" font-size="14">Rohrdamm</text>
<text transform="matrix(0.7071 -0.7071 0.7071 0.7071 373.4355 563.5637)" font-family="'TrebuchetMS'" font-size="14">Paulsternstraße</text>
<text transform="matrix(0.7071 -0.7071 0.7071 0.7071 324.9814 563.5637)" font-family="'TrebuchetMS'" font-size="14">Haselhorst</text>
<text transform="matrix(0.7071 -0.7071 0.7071 0.7071 273.4346 563.5637)" font-family="'TrebuchetMS'" font-size="14">Zitadelle</text>
<text transform="matrix(0.7071 -0.7071 0.7071 0.7071 223.4346 563.5637)" font-family="'TrebuchetMS'" font-size="14">Altstadt Spandau</text>
<text transform="matrix(1 0 0 1 180.9404 689.0002)" font-family="'TrebuchetMS-Bold'" font-size="14">Spandau</text>
<text transform="matrix(1 0 0 1 79.2715 645.9475)" font-family="'TrebuchetMS-Bold'" font-size="14">Rathaus Spandau</text>
<line fill="none" stroke="#339393" stroke-width="8" stroke-miterlimit="10" x1="388.666" y1="1735.188" x2="367.453" y2="1713.976"/>
<line fill="none" stroke="#339393" stroke-width="8" stroke-miterlimit="10" x1="413.415" y1="1689.227" x2="402.808" y2="1678.617"/>
<line fill="none" stroke="#339393" stroke-width="8" stroke-miterlimit="10" x1="448.77" y1="1653.868" x2="438.164" y2="1643.265"/>
<line fill="none" stroke="#339393" stroke-width="8" stroke-miterlimit="10" x1="484.125" y1="1618.516" x2="473.52" y2="1607.906"/>
<line fill="none" stroke="#339393" stroke-width="8" stroke-miterlimit="10" x1="519.48" y1="1583.157" x2="508.875" y2="1572.554"/>
<line fill="none" stroke="#339393" stroke-width="8" stroke-miterlimit="10" x1="554.836" y1="1547.805" x2="544.23" y2="1537.198"/>
<line fill="none" stroke="#339393" stroke-width="8" stroke-miterlimit="10" x1="590.192" y1="1512.448" x2="579.585" y2="1501.843"/>
<line fill="none" stroke="#339393" stroke-width="8" stroke-miterlimit="10" x1="625.547" y1="1477.094" x2="614.941" y2="1466.487"/>
<line fill="none" stroke="#339393" stroke-width="8" stroke-miterlimit="10" x1="667.974" y1="1434.666" x2="657.367" y2="1424.061"/>
<line fill="none" stroke="#339393" stroke-width="8" stroke-miterlimit="10" x1="813.914" y1="1290.297" x2="803.307" y2="1279.69"/>
<line fill="none" stroke="#339393" stroke-width="8" stroke-miterlimit="10" x1="910.105" y1="1194.105" x2="920.712" y2="1204.712"/>
<line fill="none" stroke="#040000" stroke-width="8" stroke-miterlimit="10" x1="208.387" y1="640.948" x2="208.387" y2="640.948"/>
<line fill="none" stroke="#1793C5" stroke-width="8" stroke-miterlimit="10" x1="223.387" y1="590.948" x2="223.387" y2="575.948"/>
<line fill="none" stroke="#1793C5" stroke-width="8" stroke-miterlimit="10" x1="273.387" y1="590.948" x2="273.387" y2="575.948"/>
<line fill="none" stroke="#1793C5" stroke-width="8" stroke-miterlimit="10" x1="323.387" y1="590.948" x2="323.387" y2="575.948"/>
<line fill="none" stroke="#1793C5" stroke-width="8" stroke-miterlimit="10" x1="373.387" y1="590.948" x2="373.387" y2="575.948"/>
<line fill="none" stroke="#1793C5" stroke-width="8" stroke-miterlimit="10" x1="423.387" y1="590.948" x2="423.387" y2="575.948"/>
<line fill="none" stroke="#1793C5" stroke-width="8" stroke-miterlimit="10" x1="473.387" y1="590.948" x2="473.387" y2="575.948"/>
<line fill="none" stroke="#1793C5" stroke-width="8" stroke-miterlimit="10" x1="523.387" y1="590.948" x2="523.387" y2="575.948"/>
<line fill="none" stroke="#1793C5" stroke-width="8" stroke-miterlimit="10" x1="573.387" y1="590.948" x2="573.387" y2="575.948"/>
<line fill="none" stroke="#1793C5" stroke-width="8" stroke-miterlimit="10" x1="2032.512" y1="1864.618" x2="2053.725" y2="1843.406"/>
<line fill="none" stroke="#1793C5" stroke-width="8" stroke-miterlimit="10" x1="2007.763" y1="1818.656" x2="2018.369" y2="1808.053"/>
<line fill="none" stroke="#1793C5" stroke-width="8" stroke-miterlimit="10" x1="1972.407" y1="1783.304" x2="1983.014" y2="1772.697"/>
<line fill="none" stroke="#1793C5" stroke-width="8" stroke-miterlimit="10" x1="1937.052" y1="1747.948" x2="1947.658" y2="1737.342"/>
<line fill="none" stroke="#EC651A" stroke-width="8" stroke-miterlimit="10" x1="854.695" y1="1657.031" x2="839.695" y2="1657.031"/>
<line fill="none" stroke="#EC651A" stroke-width="8" stroke-miterlimit="10" x1="854.695" y1="1587.031" x2="839.695" y2="1587.031"/>
<line fill="none" stroke="#EC651A" stroke-width="8" stroke-miterlimit="10" x1="854.695" y1="1517.031" x2="839.695" y2="1517.031"/>
<line fill="none" stroke="#EC651A" stroke-width="8" stroke-miterlimit="10" x1="854.695" y1="1447.031" x2="839.695" y2="1447.031"/>
<line fill="none" stroke="#89592D" stroke-width="8" stroke-miterlimit="10" x1="1333.255" y1="847" x2="1318.255" y2="847"/>
<line fill="none" stroke="#1793C5" stroke-width="8" stroke-miterlimit="10" x1="1912.104" y1="1355.688" x2="1927.104" y2="1355.688"/>
<line fill="none" stroke="#1793C5" stroke-width="8" stroke-miterlimit="10" x1="1881.422" y1="1283.575" x2="1892.029" y2="1272.972"/>
<line fill="none" stroke="#1793C5" stroke-width="8" stroke-miterlimit="10" x1="1694" y1="1269.016" x2="1694" y2="1254.016"/>
<line fill="none" stroke="#1793C5" stroke-width="8" stroke-miterlimit="10" x1="1619" y1="1254.016" x2="1619" y2="1239.016"/>
<line fill="none" stroke="#7C6CA4" stroke-width="8" stroke-miterlimit="10" x1="1552.104" y1="1378" x2="1537.104" y2="1378"/>
<line fill="none" stroke="#7C6CA4" stroke-width="8" stroke-miterlimit="10" x1="1552.104" y1="1313" x2="1537.104" y2="1313"/>
<line fill="none" stroke="#035D96" stroke-width="8" stroke-miterlimit="10" x1="1775.119" y1="1378" x2="1760.119" y2="1378"/>
<line fill="none" stroke="#035D96" stroke-width="8" stroke-miterlimit="10" x1="1775.119" y1="1313" x2="1760.119" y2="1313"/>
<line fill="none" stroke="#035D96" stroke-width="8" stroke-miterlimit="10" x1="1775.119" y1="1198" x2="1760.119" y2="1198"/>
<text transform="matrix(1 0 0 1 1685.5508 1082.0198)" font-family="'TrebuchetMS'" font-size="14">Moritzplatz</text>
<text transform="matrix(1 0 0 1 1795.5 981.4182)" font-family="'TrebuchetMS'" font-size="14">Heinrich-</text>
<text transform="matrix(1 0 0 1 1795.5 998.218)" font-family="'TrebuchetMS'" font-size="14">Heine-</text>
<text transform="matrix(1 0 0 1 1795.5 1015.0178)" font-family="'TrebuchetMS'" font-size="14">Straße</text>
<line fill="none" stroke="#035D96" stroke-width="8" stroke-miterlimit="10" x1="1363.396" y1="430.602" x2="1374.002" y2="419.993"/>
<line fill="none" stroke="#035D96" stroke-width="8" stroke-miterlimit="10" x1="1654.318" y1="741.097" x2="1664.926" y2="730.49"/>
<line fill="none" stroke="#035D96" stroke-width="8" stroke-miterlimit="10" x1="1614.712" y1="701.49" x2="1625.318" y2="690.883"/>
<line fill="none" stroke="#035D96" stroke-width="8" stroke-miterlimit="10" x1="1585.711" y1="651.276" x2="1596.316" y2="640.669"/>
<line fill="none" stroke="#035D96" stroke-width="8" stroke-miterlimit="10" x1="1546.104" y1="611.668" x2="1556.71" y2="601.062"/>
<line fill="none" stroke="#EC651A" stroke-width="8" stroke-miterlimit="10" x1="1193.386" y1="358.386" x2="1182.779" y2="347.779"/>
<line fill="none" stroke="#EC651A" stroke-width="8" stroke-miterlimit="10" x1="1064.612" y1="487.156" x2="1054.006" y2="476.553"/>
<line fill="none" stroke="#7C6CA4" stroke-width="8" stroke-miterlimit="10" x1="1522.104" y1="1697.031" x2="1552.104" y2="1697.031"/>
<line fill="none" stroke="#7C6CA4" stroke-width="8" stroke-miterlimit="10" x1="1537.104" y1="1647.031" x2="1552.104" y2="1647.031"/>
<line fill="none" stroke="#7C6CA4" stroke-width="8" stroke-miterlimit="10" x1="1537.104" y1="1597.031" x2="1552.104" y2="1597.031"/>
<line fill="none" stroke="#7C6CA4" stroke-width="8" stroke-miterlimit="10" x1="1537.104" y1="1547.031" x2="1552.104" y2="1547.031"/>
<line fill="none" stroke="#7C6CA4" stroke-width="8" stroke-miterlimit="10" x1="1537.104" y1="1497.031" x2="1552.104" y2="1497.031"/>
<line fill="none" stroke="#1793C5" stroke-width="8" stroke-miterlimit="10" x1="1912.104" y1="1697.031" x2="1927.104" y2="1697.031"/>
<line fill="none" stroke="#1793C5" stroke-width="8" stroke-miterlimit="10" x1="1912.104" y1="1647.031" x2="1927.104" y2="1647.031"/>
<line fill="none" stroke="#1793C5" stroke-width="8" stroke-miterlimit="10" x1="1912.104" y1="1597.031" x2="1927.104" y2="1597.031"/>
<line fill="none" stroke="#1793C5" stroke-width="8" stroke-miterlimit="10" x1="1912.104" y1="1547.031" x2="1927.104" y2="1547.031"/>
<line fill="none" stroke="#1793C5" stroke-width="8" stroke-miterlimit="10" x1="1912.104" y1="1497.031" x2="1927.104" y2="1497.031"/>
<polyline fill="none" stroke="#1793C5" stroke-width="8" stroke-miterlimit="10" points="2045.559,1856.452 1912.104,1723 
	1912.104,1314.26 1852,1254.155 1569.359,1254.155 1471.721,1156.516 1361.721,1156.516 1361.721,1208 1229.333,1340.516 
	776.667,1340.516 692,1256 692,694.561 588.387,590.948 208.387,590.948 208.387,640.948 "/>
<polyline fill="none" stroke="#E02021" stroke-width="8" stroke-miterlimit="10" points="1728.824,278.344 1728.824,958.396 
	1668.721,1018.5 1308.72,1018.805 1308.72,1098.805 1238.01,1169.516 987.695,1169.516 783.5,965.239 431,965.239 324.934,859.173 
	"/>
<polyline fill="none" stroke="#89592D" stroke-width="8" stroke-miterlimit="10" points="1455.102,875.743 1335.721,875.743 
	1335.721,776.054 "/>
<path fill="none" stroke="#040000" stroke-width="8" stroke-miterlimit="10" d="M1647.398,542.598"/>
<polyline opacity="0.5" fill="none" stroke="#89592D" stroke-width="8" stroke-miterlimit="10" enable-background="new    " points="
	1455.102,875.743 1672,875.743 1730.213,817.496 "/>
<path fill="none" stroke="#1793C5" stroke-width="8" stroke-miterlimit="10" d="M1237.548,1380.688"/>
<polyline fill="none" stroke="#339393" stroke-width="8" stroke-miterlimit="10" points="1097.695,1156.516 947.695,1156.516 
	378.844,1725.365 "/>
<polyline fill="none" stroke="#53A947" stroke-width="8" stroke-miterlimit="10" points="786.015,1143.516 1931.229,1143.516 
	1992.727,1082.02 "/>
<circle opacity="0.5" fill="#FFFFFF" stroke="#000000" stroke-width="2" stroke-miterlimit="10" enable-background="new    " cx="1536.498" cy="875.743" r="8.5"/>
<polyline fill="none" stroke="#7C6CA4" stroke-width="8" stroke-miterlimit="10" points="1536.498,1697.031 1536.498,806.33 
	824.224,94.059 "/>
<path fill="none" stroke="#E02021" stroke-width="8" stroke-miterlimit="10" d="M1238.01,1169.516"/>
<line fill="none" stroke="#53A947" stroke-width="8" stroke-miterlimit="10" x1="784.695" y1="1158.516" x2="784.695" y2="1128.516"/>
<line fill="none" stroke="#53A947" stroke-width="8" stroke-miterlimit="10" x1="1189.695" y1="1143.864" x2="1189.695" y2="1128.864"/>
<path fill="#FFFFFF" stroke="#000000" stroke-width="2" stroke-miterlimit="10" d="M1021.195,1169.516v-26
	c0-4.694-3.808-8.5-8.5-8.5c-4.695,0-8.5,3.806-8.5,8.5v26c0,4.693,3.805,8.5,8.5,8.5
	C1017.39,1178.016,1021.195,1174.209,1021.195,1169.516"/>
<path fill="#FFFFFF" stroke="#000000" stroke-width="8" stroke-miterlimit="10" d="M1106.195,1169.516"/>
<path fill="#FFFFFF" stroke="#000000" stroke-width="8" stroke-miterlimit="10" d="M1089.195,1182.516"/>
<path fill="#FFFFFF" stroke="#000000" stroke-width="8" stroke-miterlimit="10" d="M1106.195,1182.516"/>
<polyline fill="none" stroke="#035D96" stroke-width="8" stroke-miterlimit="10" points="1775.119,1447.043 1775.119,842.323 
	1083.896,151.103 1083.896,81.103 1183.896,81.103 "/>
<circle fill="#FFFFFF" stroke="#000000" stroke-width="2" stroke-miterlimit="10" cx="1264.695" cy="1143.516" r="8.5"/>
<path fill="#FFFFFF" stroke="#000000" stroke-width="2" stroke-miterlimit="10" d="M1433.195,1156.516v-13
	c0-4.694-3.808-8.5-8.5-8.5c-4.695,0-8.5,3.806-8.5,8.5v13c0,4.693,3.805,8.5,8.5,8.5
	C1429.39,1165.016,1433.195,1161.209,1433.195,1156.516"/>
<line fill="none" stroke="#53A947" stroke-width="8" stroke-miterlimit="10" x1="1648.301" y1="1143.864" x2="1648.301" y2="1128.864"/>
<circle fill="#FFFFFF" stroke="#000000" stroke-width="2" stroke-miterlimit="10" cx="1536.498" cy="1143.864" r="8.5"/>
<text transform="matrix(1 0 0 1 738.2876 1106.0159)" font-family="'TrebuchetMS-Bold'" font-size="14">Uhland-</text>
<text transform="matrix(1 0 0 1 748.4795 1122.8157)" font-family="'TrebuchetMS-Bold'" font-size="14">straße</text>
<text transform="matrix(1 0 0 1 863.1948 1160.0002)" font-family="'TrebuchetMS'" font-size="14">Kurfürsten-</text>
<text transform="matrix(1 0 0 1 863.1948 1176.8)" font-family="'TrebuchetMS'" font-size="14">damm</text>
<text transform="matrix(1 0 0 1 975.0186 1106.0159)" font-family="'TrebuchetMS'" font-size="14">Wittenberg-</text>
<text transform="matrix(1 0 0 1 996.9556 1122.8157)" font-family="'TrebuchetMS'" font-size="14">platz</text>
<text transform="matrix(1 0 0 1 1074.2065 1206.6663)" font-family="'TrebuchetMS-Bold'" font-size="14">Nollen-</text>
<text transform="matrix(1 0 0 1 1067.7466 1223.467)" font-family="'TrebuchetMS-Bold'" font-size="14">dorfplatz</text>
<text transform="matrix(1 0 0 1 1154.4702 1106.0159)" font-family="'TrebuchetMS'" font-size="14">Kurfürsten-</text>
<text transform="matrix(1 0 0 1 1170.3501 1122.8157)" font-family="'TrebuchetMS'" font-size="14">straße</text>
<line fill="none" stroke="#E02021" stroke-width="8" stroke-miterlimit="10" x1="1190" y1="1169.516" x2="1190" y2="1184.516"/>
<text transform="matrix(1 0 0 1 1269 1163.0159)" font-family="'TrebuchetMS'" font-size="14">Gleis-</text>
<text transform="matrix(1 0 0 1 1269 1179.8157)" font-family="'TrebuchetMS'" font-size="14">dreieck</text>
<text transform="matrix(1 0 0 1 1273.8301 994.5002)" font-family="'TrebuchetMS'" font-size="14">Potsdamer</text>
<text transform="matrix(1 0 0 1 1308.7344 1011.3)" font-family="'TrebuchetMS'" font-size="14">Platz</text>
<text transform="matrix(1 0 0 1 1547.5 1160.0002)" font-family="'TrebuchetMS'" font-size="14">Hallesches</text>
<text transform="matrix(1 0 0 1 1547.5 1176.8)" font-family="'TrebuchetMS'" font-size="14">Tor</text>
<text transform="matrix(1 0 0 1 1605.2412 1122.0002)" font-family="'TrebuchetMS'" font-size="14">Prinzenstraße</text>
<circle fill="#FFFFFF" stroke="#000000" stroke-width="2" stroke-miterlimit="10" cx="1775.104" cy="1254.016" r="8.5"/>
<circle fill="#FFFFFF" stroke="#000000" stroke-width="2" stroke-miterlimit="10" cx="1775.104" cy="1143.516" r="8.5"/>
<line fill="none" stroke="#53A947" stroke-width="8" stroke-miterlimit="10" x1="1825.104" y1="1158.864" x2="1825.104" y2="1143.864"/>
<line fill="none" stroke="#53A947" stroke-width="8" stroke-miterlimit="10" x1="1918.928" y1="1158.864" x2="1918.928" y2="1143.864"/>
<text transform="matrix(1 0 0 1 1797.1963 1175.3323)" font-family="'TrebuchetMS'" font-size="14">Görlitzer</text>
<text transform="matrix(1 0 0 1 1799.6475 1192.1331)" font-family="'TrebuchetMS'" font-size="14">Bahnhof</text>
<text transform="matrix(1 0 0 1 1913.624 1175.3323)" font-family="'TrebuchetMS'" font-size="14">Schlesisches Tor</text>
<line fill="none" stroke="#E02021" stroke-width="8" stroke-miterlimit="10" x1="1443.721" y1="1018.5" x2="1443.721" y2="1003.5"/>
<circle fill="#FFFFFF" stroke="#000000" stroke-width="2" stroke-miterlimit="10" cx="1536.498" cy="1018.5" r="8.5"/>
<text transform="matrix(1 0 0 1 1419.1162 981.4182)" font-family="'TrebuchetMS'" font-size="14">Mohren-</text>
<text transform="matrix(1 0 0 1 1424.9473 998.218)" font-family="'TrebuchetMS'" font-size="14">straße</text>
<text transform="matrix(1 0 0 1 1396.042 1180.6663)" font-family="'TrebuchetMS'" font-size="14">Möckern-</text>
<text transform="matrix(1 0 0 1 1403.4351 1197.467)" font-family="'TrebuchetMS'" font-size="14">brücke</text>
<text transform="matrix(1 0 0 1 1460.6572 1036.5002)" font-family="'TrebuchetMS'" font-size="14">Stadtmitte</text>
<line fill="none" stroke="#E02021" stroke-width="8" stroke-miterlimit="10" x1="1591.498" y1="1033.5" x2="1591.498" y2="1018.5"/>
<line fill="none" stroke="#E02021" stroke-width="8" stroke-miterlimit="10" x1="1651.498" y1="1033.5" x2="1651.498" y2="1018.5"/>
<text transform="matrix(1 0 0 1 1548.0566 1047.0002)" font-family="'TrebuchetMS'" font-size="14">Hausvogtei-</text>
<text transform="matrix(1 0 0 1 1569.0918 1063.8)" font-family="'TrebuchetMS'" font-size="14">platz</text>
<text transform="matrix(1 0 0 1 1640.7344 1047.0002)" font-family="'TrebuchetMS'" font-size="14">Spittel-</text>
<text transform="matrix(1 0 0 1 1645.4844 1063.8)" font-family="'TrebuchetMS'" font-size="14">markt</text>
<line fill="none" stroke="#E02021" stroke-width="8" stroke-miterlimit="10" x1="1678.075" y1="1009.146" x2="1667.469" y2="998.536"/>
<line fill="none" stroke="#E02021" stroke-width="8" stroke-miterlimit="10" x1="1720.502" y1="966.719" x2="1709.896" y2="956.112"/>
<line fill="none" stroke="#035D96" stroke-width="8" stroke-miterlimit="10" x1="1775.104" y1="1073.516" x2="1760.104" y2="1073.516"/>
<line fill="none" stroke="#035D96" stroke-width="8" stroke-miterlimit="10" x1="1790.104" y1="1003.516" x2="1775.104" y2="1003.516"/>
<line fill="none" stroke="#035D96" stroke-width="8" stroke-miterlimit="10" x1="1760.104" y1="868.516" x2="1760.104" y2="868.516"/>
<path fill="#FFFFFF" stroke="#000000" stroke-width="2" stroke-miterlimit="10" d="M1737.324,794.731c0-4.694-3.805-8.5-8.5-8.5
	s-8.5,3.806-8.5,8.5v34.107c0,4.691,3.805,8.5,8.5,8.5s8.5-3.809,8.5-8.5V794.731z"/>
<line fill="none" stroke="#E02021" stroke-width="8" stroke-miterlimit="10" x1="1728.824" y1="723.5" x2="1743.824" y2="723.5"/>
<line fill="none" stroke="#E02021" stroke-width="8" stroke-miterlimit="10" x1="1728.824" y1="668.5" x2="1743.824" y2="668.5"/>
<line fill="none" stroke="#E02021" stroke-width="8" stroke-miterlimit="10" x1="1728.824" y1="613.5" x2="1743.824" y2="613.5"/>
<line fill="none" stroke="#E02021" stroke-width="8" stroke-miterlimit="10" x1="1728.824" y1="433.5" x2="1743.824" y2="433.5"/>
<text transform="matrix(1 0 0 1 1435.501 944.0002)" font-family="'TrebuchetMS'" font-size="14">Französische</text>
<text transform="matrix(1 0 0 1 1474.6299 960.8)" font-family="'TrebuchetMS'" font-size="14">Straße</text>
<line fill="none" stroke="#7C6CA4" stroke-width="8" stroke-miterlimit="10" x1="1536.498" y1="943.354" x2="1521.498" y2="943.354"/>
<g>
	<text transform="matrix(1 0 0 1 1217.2173 779.2307)" font-family="'TrebuchetMS-Bold'" font-size="14">Hauptbahnhof</text>
</g>
<line fill="none" stroke="#E02021" stroke-width="8" stroke-miterlimit="10" x1="808.61" y1="990.431" x2="819.217" y2="979.823"/>
<line fill="none" stroke="#E02021" stroke-width="8" stroke-miterlimit="10" x1="750.918" y1="965.239" x2="750.918" y2="950.239"/>
<line fill="none" stroke="#E02021" stroke-width="8" stroke-miterlimit="10" x1="617.105" y1="965.239" x2="617.105" y2="950.239"/>
<line fill="none" stroke="#E02021" stroke-width="8" stroke-miterlimit="10" x1="445.918" y1="980.239" x2="445.918" y2="965.239"/>
<circle fill="#FFFFFF" stroke="#000000" stroke-width="2" stroke-miterlimit="10" cx="691.474" cy="965.239" r="8.5"/>
<polyline fill="none" stroke="#F5D021" stroke-width="8" stroke-miterlimit="10" points="1097.695,1182.516 1037.695,1182.516 
	1037.695,1447.031 "/>
<circle fill="#FFFFFF" stroke="#000000" stroke-width="2" stroke-miterlimit="10" cx="1037.695" cy="1340.516" r="8.5"/>
<path fill="#FFFFFF" stroke="#000000" stroke-width="2" stroke-miterlimit="10" d="M1106.195,1182.516c0,4.693-3.808,8.5-8.5,8.5
	c-4.695,0-8.5-3.807-8.5-8.5v-39c0-4.694,3.805-8.5,8.5-8.5c4.692,0,8.5,3.806,8.5,8.5V1182.516z"/>
<circle fill="#FFFFFF" stroke="#000000" stroke-width="2" stroke-miterlimit="10" cx="1536.498" cy="1222" r="8.5"/>
<line fill="none" stroke="#EC651A" stroke-width="8" stroke-miterlimit="10" x1="854.695" y1="1290.516" x2="869.695" y2="1290.516"/>
<line fill="none" stroke="#89592D" stroke-width="8" stroke-miterlimit="10" x1="1823.824" y1="818.282" x2="1823.824" y2="803.282"/>
<line fill="none" stroke="#89592D" stroke-width="8" stroke-miterlimit="10" x1="1872.966" y1="832.285" x2="1883.572" y2="821.682"/>
<line fill="none" stroke="#89592D" stroke-width="8" stroke-miterlimit="10" x1="1908.321" y1="867.644" x2="1918.928" y2="857.034"/>
<line fill="none" stroke="#89592D" stroke-width="8" stroke-miterlimit="10" x1="1943.677" y1="902.996" x2="1954.283" y2="892.393"/>
<line fill="none" stroke="#89592D" stroke-width="8" stroke-miterlimit="10" x1="1979.032" y1="938.354" x2="1989.639" y2="927.745"/>
<polyline fill="none" stroke="#EC651A" stroke-width="8" stroke-miterlimit="10" points="854.695,1733.486 854.695,1078.516 
	1004.953,928.258 1004.953,546.819 1239.175,312.597 "/>
<circle fill="#FFFFFF" stroke="#000000" stroke-width="2" stroke-miterlimit="10" cx="854.695" cy="1143.516" r="8.5"/>
<path fill="#FFFFFF" stroke="#000000" stroke-width="2" stroke-miterlimit="10" d="M881.801,1050.486l-9.189-9.192
	c-3.319-3.316-8.701-3.316-12.021,0c-3.318,3.319-3.316,8.701,0,12.021l9.192,9.192c3.317,3.316,8.7,3.317,12.021,0
	C885.122,1059.188,885.121,1053.806,881.801,1050.486"/>
<circle fill="#FFFFFF" stroke="#000000" stroke-width="2" stroke-miterlimit="10" cx="854.695" cy="1249.016" r="8.5"/>
<circle fill="#FFFFFF" stroke="#000000" stroke-width="2" stroke-miterlimit="10" cx="854.695" cy="1340.688" r="8.5"/>
<text transform="matrix(1 0 0 1 720.1563 919.2766)" font-family="'TrebuchetMS'" font-size="14">Deutsche </text>
<text transform="matrix(1 0 0 1 735.7622 936.0774)" font-family="'TrebuchetMS'" font-size="14">Oper</text>
<line fill="none" stroke="#1793C5" stroke-width="8" stroke-miterlimit="10" x1="692" y1="753.5" x2="707" y2="753.5"/>
<line fill="none" stroke="#1793C5" stroke-width="8" stroke-miterlimit="10" x1="692" y1="867.644" x2="707" y2="867.644"/>
<line fill="none" stroke="#1793C5" stroke-width="8" stroke-miterlimit="10" x1="691.474" y1="1175.332" x2="676.474" y2="1175.332"/>
<line fill="none" stroke="#1793C5" stroke-width="8" stroke-miterlimit="10" x1="713.02" y1="1276.981" x2="702.412" y2="1287.588"/>
<circle fill="#FFFFFF" stroke="#000000" stroke-width="2" stroke-miterlimit="10" cx="769" cy="1332.188" r="8.5"/>
<line fill="none" stroke="#1793C5" stroke-width="8" stroke-miterlimit="10" x1="813.914" y1="1340.516" x2="813.914" y2="1355.516"/>
<line fill="none" stroke="#1793C5" stroke-width="8" stroke-miterlimit="10" x1="1106.195" y1="1340.688" x2="1106.195" y2="1355.688"/>
<line fill="none" stroke="#1793C5" stroke-width="8" stroke-miterlimit="10" x1="1190" y1="1340.688" x2="1190" y2="1325.688"/>
<text transform="matrix(1 0 0 1 1596.666 990.4309)" font-family="'TrebuchetMS'" font-size="14">Märkisches</text>
<text transform="matrix(1 0 0 1 1613.8447 1007.2307)" font-family="'TrebuchetMS'" font-size="14">Museum</text>
<text transform="matrix(1 0 0 1 1619.7041 959.5667)" font-family="'TrebuchetMS'" font-size="14">Klosterstraße</text>
<text transform="matrix(1 0 0 1 1743.8242 779.2307)" font-family="'TrebuchetMS'" font-size="14">Alexander-</text>
<text transform="matrix(1 0 0 1 1743.8242 796.0315)" font-family="'TrebuchetMS'" font-size="14">platz</text>
<text transform="matrix(1 0 0 1 1752 726.0002)" font-family="'TrebuchetMS'" font-size="14">Rosa-Luxemburg-Platz</text>
<text transform="matrix(1 0 0 1 1752 668.5002)" font-family="'TrebuchetMS'" font-size="14">Senefeldplatz</text>
<text transform="matrix(1 0 0 1 1752 620.0002)" font-family="'TrebuchetMS'" font-size="14">Eberswalder Straße</text>
<text transform="matrix(1 0 0 1 1752 563.5608)" font-family="'TrebuchetMS'" font-size="14">Schönhauser Allee</text>
<text transform="matrix(1 0 0 1 1752 433.5002)" font-family="'TrebuchetMS'" font-size="14">Vinetastraße</text>
<text transform="matrix(1 0 0 1 1752 287.0002)" font-family="'TrebuchetMS-Bold'" font-size="14">Pankow</text>
<line fill="none" stroke="#E02021" stroke-width="8" stroke-miterlimit="10" x1="395.645" y1="929.884" x2="406.251" y2="919.277"/>
<line fill="none" stroke="#E02021" stroke-width="8" stroke-miterlimit="10" x1="349.683" y1="905.135" x2="360.289" y2="894.528"/>
<line fill="none" stroke="#E02021" stroke-width="8" stroke-miterlimit="10" x1="314.327" y1="869.779" x2="335.54" y2="848.566"/>
<text transform="matrix(1 0 0 1 293.3066 919.2766)" font-family="'TrebuchetMS'" font-size="14">Olympia-</text>
<text transform="matrix(1 0 0 1 304.1558 936.0774)" font-family="'TrebuchetMS'" font-size="14">stadion</text>
<text transform="matrix(1 0 0 1 343.5 853.5002)" font-family="'TrebuchetMS-Bold'" font-size="14">Ruhleben</text>
<text transform="matrix(1 0 0 1 413 919.2766)" font-family="'TrebuchetMS'" font-size="14">Neu-Westend</text>
<text transform="matrix(1 0 0 1 417.5078 994.5002)" font-family="'TrebuchetMS'" font-size="14">Theodor-</text>
<text transform="matrix(1 0 0 1 409.7148 1011.3)" font-family="'TrebuchetMS'" font-size="14">Heuss-Platz</text>
<text transform="matrix(1 0 0 1 494.9844 944.0002)" font-family="'TrebuchetMS'" font-size="14">Kaiserdamm</text>
<text transform="matrix(1 0 0 1 593.8735 914.5002)" font-family="'TrebuchetMS'" font-size="14">Sophie-</text>
<text transform="matrix(1 0 0 1 584.9355 931.3)" font-family="'TrebuchetMS'" font-size="14">Charlotte-</text>
<text transform="matrix(1 0 0 1 601.3623 948.0999)" font-family="'TrebuchetMS'" font-size="14">Platz</text>
<text transform="matrix(1 0 0 1 826 979.8245)" font-family="'TrebuchetMS'" font-size="14">Ernst-Reuter-</text>
<text transform="matrix(1 0 0 1 826 996.6243)" font-family="'TrebuchetMS'" font-size="14">Platz</text>
<text transform="matrix(1 0 0 1 900.5 1055.5002)" font-family="'TrebuchetMS'" font-size="14">Zoologischer</text>
<text transform="matrix(1 0 0 1 900.5 1072.3)" font-family="'TrebuchetMS'" font-size="14">Garten</text>
<line fill="none" stroke="#F5D021" stroke-width="8" stroke-miterlimit="10" x1="1037.695" y1="1263.332" x2="1052.695" y2="1263.332"/>
<line fill="none" stroke="#F5D021" stroke-width="8" stroke-miterlimit="10" x1="1022.695" y1="1401.998" x2="1037.695" y2="1401.998"/>
<circle fill="#FFFFFF" stroke="#000000" stroke-width="2" stroke-miterlimit="10" cx="1241.5" cy="310" r="8.5"/>
<circle fill="#FFFFFF" stroke="#000000" stroke-width="2" stroke-miterlimit="10" cx="1141.5" cy="411.5" r="8.5"/>
<circle fill="#FFFFFF" stroke="#000000" stroke-width="2" stroke-miterlimit="10" cx="854.695" cy="1733.486" r="8.5"/>
<text transform="matrix(1 0 0 1 618.085 1047.0002)" font-family="'TrebuchetMS'" font-size="14">Wilmer-</text>
<text transform="matrix(1 0 0 1 628.9678 1063.8)" font-family="'TrebuchetMS'" font-size="14">dorfer</text>
<text transform="matrix(1 0 0 1 627.6069 1080.5999)" font-family="'TrebuchetMS'" font-size="14">Straße</text>
<text transform="matrix(1 0 0 1 702.5 985.1272)" font-family="'TrebuchetMS'" font-size="14">Bismarck-</text>
<text transform="matrix(1 0 0 1 702.5 1001.927)" font-family="'TrebuchetMS'" font-size="14">straße</text>
<text transform="matrix(1 0 0 1 713.0186 869.7795)" font-family="'TrebuchetMS'" font-size="14">Richard-Wagner-Platz</text>
<text transform="matrix(1 0 0 1 713.0186 758.4661)" font-family="'TrebuchetMS'" font-size="14">Mierendorffplatz</text>
<text transform="matrix(1 0 0 1 643 618.7229)" font-family="'TrebuchetMS'" font-size="14">Jungfernheide</text>
<line fill="none" stroke="#EC651A" stroke-width="8" stroke-miterlimit="10" x1="984.25" y1="948.961" x2="994.855" y2="959.567"/>
<text transform="matrix(1 0 0 1 1008 970.0002)" font-family="'TrebuchetMS'" font-size="14">Hansaplatz</text>
<text transform="matrix(1 0 0 1 1059.6045 1269.0159)" font-family="'TrebuchetMS'" font-size="14">Viktoria-Luise-Platz</text>
<line fill="none" stroke="#EC651A" stroke-width="8" stroke-miterlimit="10" x1="1004.953" y1="767.554" x2="989.953" y2="767.554"/>
<line fill="none" stroke="#EC651A" stroke-width="8" stroke-miterlimit="10" x1="1004.953" y1="667.554" x2="989.953" y2="667.554"/>
<line fill="none" stroke="#7C6CA4" stroke-width="8" stroke-miterlimit="10" x1="858.079" y1="127.637" x2="847.473" y2="138.244"/>
<line fill="none" stroke="#035D96" stroke-width="8" stroke-miterlimit="10" x1="1100.617" y1="167.942" x2="1090.01" y2="178.549"/>
<line fill="none" stroke="#035D96" stroke-width="8" stroke-miterlimit="10" x1="1135.973" y1="203.297" x2="1125.365" y2="213.904"/>
<line fill="none" stroke="#035D96" stroke-width="8" stroke-miterlimit="10" x1="1171.327" y1="238.653" x2="1160.721" y2="249.259"/>
<line fill="none" stroke="#035D96" stroke-width="8" stroke-miterlimit="10" x1="1206.684" y1="274.008" x2="1196.076" y2="284.615"/>
<line fill="none" stroke="#7C6CA4" stroke-width="8" stroke-miterlimit="10" x1="999.5" y1="269.059" x2="988.895" y2="279.665"/>
<line fill="none" stroke="#7C6CA4" stroke-width="8" stroke-miterlimit="10" x1="893.434" y1="162.99" x2="882.828" y2="173.599"/>
<line fill="none" stroke="#7C6CA4" stroke-width="8" stroke-miterlimit="10" x1="928.79" y1="198.348" x2="918.183" y2="208.954"/>
<line fill="none" stroke="#7C6CA4" stroke-width="8" stroke-miterlimit="10" x1="964.145" y1="233.703" x2="953.539" y2="244.31"/>
<line fill="none" stroke="#7C6CA4" stroke-width="8" stroke-miterlimit="10" x1="1034.855" y1="304.411" x2="1024.249" y2="315.02"/>
<line fill="none" stroke="#7C6CA4" stroke-width="8" stroke-miterlimit="10" x1="1070.211" y1="339.769" x2="1059.604" y2="350.375"/>
<line fill="none" stroke="#7C6CA4" stroke-width="8" stroke-miterlimit="10" x1="1105.566" y1="375.125" x2="1094.96" y2="385.731"/>
<line fill="none" stroke="#7C6CA4" stroke-width="8" stroke-miterlimit="10" x1="1449.928" y1="719.486" x2="1439.321" y2="730.092"/>
<line fill="none" stroke="#7C6CA4" stroke-width="8" stroke-miterlimit="10" x1="1343.861" y1="613.419" x2="1333.255" y2="624.026"/>
<line fill="none" stroke="#7C6CA4" stroke-width="8" stroke-miterlimit="10" x1="1379.217" y1="648.775" x2="1368.609" y2="659.381"/>
<line fill="none" stroke="#7C6CA4" stroke-width="8" stroke-miterlimit="10" x1="1414.572" y1="684.13" x2="1403.966" y2="694.737"/>
<path fill="#FFFFFF" stroke="#000000" stroke-width="2" stroke-miterlimit="10" d="M211.345,657.127
	c1.023,0.414,1.982,1.034,2.813,1.864c3.32,3.32,3.318,8.702,0,12.021c-3.32,3.319-8.701,3.319-12.021,0
	c-3.319-3.319-3.32-8.701,0-12.021c1.055-1.056,2.319-1.772,3.661-2.156l-0.003-8.334c-1.161-0.409-2.25-1.078-3.179-2.009
	c-3.319-3.316-3.319-8.698,0-12.021c3.32-3.319,8.701-3.32,12.021,0c3.319,3.317,3.319,8.701,0,12.021
	c-0.929,0.933-2.021,1.601-3.182,2.01L211.345,657.127z"/>
<text transform="matrix(1 0 0 1 488.9531 1469.0315)" font-family="'TrebuchetMS'" font-size="14">Rüdesheimer Platz</text>
<text transform="matrix(1 0 0 1 464.4893 1504.5334)" font-family="'TrebuchetMS'" font-size="14">Breitenbachplatz</text>
<text transform="matrix(1 0 0 1 446.2441 1539.887)" font-family="'TrebuchetMS'" font-size="14">Podbielskallee</text>
<text transform="matrix(1 0 0 1 418.7012 1569.9397)" font-family="'TrebuchetMS'" font-size="14">Dahlem-Dorf</text>
<text transform="matrix(1 0 0 1 396.5195 1603.0315)" font-family="'TrebuchetMS'" font-size="14">Thielplatz</text>
<text transform="matrix(1 0 0 1 339.9141 1640.0002)" font-family="'TrebuchetMS'" font-size="14">Oskar-Helene-</text>
<text transform="matrix(1 0 0 1 396.5908 1656.8)" font-family="'TrebuchetMS'" font-size="14">Heim</text>
<text transform="matrix(1 0 0 1 311.3921 1678.6194)" font-family="'TrebuchetMS'" font-size="14">Onkel Toms </text>
<text transform="matrix(1 0 0 1 353.1191 1695.4202)" font-family="'TrebuchetMS'" font-size="14">Hütte</text>
<text transform="matrix(1 0 0 1 299.9839 1719.0002)" font-family="'TrebuchetMS-Bold'" font-size="14">Krumme</text>
<text transform="matrix(1 0 0 1 315.8086 1735.8)" font-family="'TrebuchetMS-Bold'" font-size="14">Lanke</text>
<text transform="matrix(1 0 0 1 680.915 1522.2893)" font-family="'TrebuchetMS'" font-size="14">Friedrich-Wilhelm-Platz</text>
<text transform="matrix(1 0 0 1 679.2813 1593.0002)" font-family="'TrebuchetMS'" font-size="14">Walther-Schreiber-Platz</text>
<text transform="matrix(1 0 0 1 750.0947 1661.0002)" font-family="'TrebuchetMS'" font-size="14">Schloßstraße</text>
<text transform="matrix(1 0 0 1 725.1299 1735.1877)" font-family="'TrebuchetMS-Bold'" font-size="14">Rathaus Steglitz</text>
<text transform="matrix(1 0 0 1 1258.8701 311.0002)" font-family="'TrebuchetMS-Bold'" font-size="14">Osloer Straße</text>
<text transform="matrix(1 0 0 1 1193.3857 83.0002)" font-family="'TrebuchetMS-Bold'" font-size="14">Wittenau</text>
<text transform="matrix(1 0 0 1 747.1191 112.3333)" font-family="'TrebuchetMS-Bold'" font-size="14">Alt-Tegel</text>
<text transform="matrix(1 0 0 1 1560.667 1703.0002)" font-family="'TrebuchetMS-Bold'" font-size="14">Alt-Mariendorf</text>
<text transform="matrix(1 0 0 1 1972.4072 1864.6213)" font-family="'TrebuchetMS-Bold'" font-size="14">Rudow</text>
<line fill="none" stroke="#89592D" stroke-width="8" stroke-miterlimit="10" x1="2160.488" y1="959.567" x2="2160.488" y2="944.567"/>
<line fill="none" stroke="#89592D" stroke-width="8" stroke-miterlimit="10" x1="2325.066" y1="959.567" x2="2325.066" y2="944.567"/>
<line fill="none" stroke="#89592D" stroke-width="8" stroke-miterlimit="10" x1="2376.161" y1="975.604" x2="2365.555" y2="986.211"/>
<line fill="none" stroke="#89592D" stroke-width="8" stroke-miterlimit="10" x1="2448.754" y1="986.534" x2="2459.36" y2="997.145"/>
<line fill="none" stroke="#89592D" stroke-width="8" stroke-miterlimit="10" x1="2491.181" y1="944.11" x2="2501.787" y2="954.718"/>
<line fill="none" stroke="#89592D" stroke-width="8" stroke-miterlimit="10" x1="2568.963" y1="866.325" x2="2579.569" y2="876.936"/>
<line fill="none" stroke="#89592D" stroke-width="8" stroke-miterlimit="10" x1="2604.318" y1="830.973" x2="2614.925" y2="841.577"/>
<line fill="none" stroke="#89592D" stroke-width="8" stroke-miterlimit="10" x1="2639.674" y1="795.615" x2="2650.28" y2="806.225"/>
<line fill="none" stroke="#89592D" stroke-width="8" stroke-miterlimit="10" x1="2675.029" y1="760.262" x2="2685.636" y2="770.866"/>
<line fill="none" stroke="#89592D" stroke-width="8" stroke-miterlimit="10" x1="2710.385" y1="724.906" x2="2720.991" y2="735.514"/>
<line fill="none" stroke="#89592D" stroke-width="8" stroke-miterlimit="10" x1="2735.134" y1="678.944" x2="2756.347" y2="700.156"/>
<text transform="matrix(1 0 0 1 1820.001 794.1448)" font-family="'TrebuchetMS'" font-size="14">Schillingstraße</text>
<text transform="matrix(1 0 0 1 1892.0293 824.0002)" font-family="'TrebuchetMS'" font-size="14">Strausberger Platz</text>
<text transform="matrix(1 0 0 1 1927.1035 864.0002)" font-family="'TrebuchetMS'" font-size="14">Weberwiese</text>
<text transform="matrix(1 0 0 1 1965 897.6956)" font-family="'TrebuchetMS'" font-size="14">Frankfurter Tor</text>
<text transform="matrix(1 0 0 1 1996.7266 927.7473)" font-family="'TrebuchetMS'" font-size="14">Samariter-</text>
<text transform="matrix(1 0 0 1 1996.7266 944.5481)" font-family="'TrebuchetMS'" font-size="14">straße</text>
<text transform="matrix(1 0 0 1 2010.2383 979.8245)" font-family="'TrebuchetMS'" font-size="14">Frankfurter</text>
<text transform="matrix(1 0 0 1 2050.2012 996.6243)" font-family="'TrebuchetMS'" font-size="14">Allee</text>
<text transform="matrix(1 0 0 1 2120.833 919.2766)" font-family="'TrebuchetMS'" font-size="14">Magdalenen-</text>
<text transform="matrix(1 0 0 1 2140.8379 936.0774)" font-family="'TrebuchetMS'" font-size="14">straße</text>
<text transform="matrix(1 0 0 1 2255 977.9309)" font-family="'TrebuchetMS'" font-size="14">Lichten-</text>
<text transform="matrix(1 0 0 1 2255 994.7307)" font-family="'TrebuchetMS'" font-size="14">berg</text>
<text transform="matrix(1 0 0 1 2277.9297 938.8538)" font-family="'TrebuchetMS'" font-size="14">Friedrichsfelde</text>
<text transform="matrix(1 0 0 1 2384.5781 975.6038)" font-family="'TrebuchetMS'" font-size="14">Tierpark</text>
<text transform="matrix(1 0 0 1 2469 1003.5002)" font-family="'TrebuchetMS'" font-size="14">Biesdorf-Süd</text>
<text transform="matrix(1 0 0 1 2506 963.0002)" font-family="'TrebuchetMS'" font-size="14">Elsterwerdaer Platz</text>
<text transform="matrix(1 0 0 1 2549.2666 933.052)" font-family="'TrebuchetMS'" font-size="14">Wuhletal</text>
<text transform="matrix(1 0 0 1 2586 882.0002)" font-family="'TrebuchetMS'" font-size="14">Kaulsdorf-Nord</text>
<text transform="matrix(1 0 0 1 2629 844.0002)" font-family="'TrebuchetMS'" font-size="14">Neue Grottkauer Straße</text>
<text transform="matrix(1 0 0 1 2660 810.7854)" font-family="'TrebuchetMS'" font-size="14">Cottbusser Platz</text>
<text transform="matrix(1 0 0 1 2694 776.0002)" font-family="'TrebuchetMS'" font-size="14">Hellersdorf</text>
<text transform="matrix(1 0 0 1 2735.1338 730.4905)" font-family="'TrebuchetMS'" font-size="14">Louis-Lewin-</text>
<text transform="matrix(1 0 0 1 2735.1338 747.2903)" font-family="'TrebuchetMS'" font-size="14">Straße</text>
<text transform="matrix(1 0 0 1 2762 693.0002)" font-family="'TrebuchetMS-Bold'" font-size="14">Hönow</text>
<text transform="matrix(1 0 0 1 1566 611.6682)" font-family="'TrebuchetMS'" font-size="14">Voltastraße</text>
<text transform="matrix(1 0 0 1 1606.667 646.0002)" font-family="'TrebuchetMS'" font-size="14">Bernauer Straße</text>
<text transform="matrix(1 0 0 1 1532.292 701.4895)" font-family="'TrebuchetMS'" font-size="14">Rosenthaler</text>
<text transform="matrix(1 0 0 1 1575.1807 718.2893)" font-family="'TrebuchetMS'" font-size="14">Platz</text>
<text transform="matrix(1 0 0 1 1564.4102 748.6663)" font-family="'TrebuchetMS'" font-size="14">Weinmeister-</text>
<text transform="matrix(1 0 0 1 1609.001 765.4661)" font-family="'TrebuchetMS'" font-size="14">straße</text>
<text transform="matrix(1 0 0 1 1428.623 786.2317)" font-family="'TrebuchetMS'" font-size="14">Friedrich-</text>
<text transform="matrix(1 0 0 1 1450.6963 803.0315)" font-family="'TrebuchetMS'" font-size="14">straße</text>
<text transform="matrix(1 0 0 1 1385.0234 741.0969)" font-family="'TrebuchetMS'" font-size="14">Oranien-</text>
<text transform="matrix(1 0 0 1 1373.0264 757.8967)" font-family="'TrebuchetMS'" font-size="14">burger Tor</text>
<text transform="matrix(1 0 0 1 1266.0957 701.4895)" font-family="'TrebuchetMS'" font-size="14">Naturkundemuseum</text>
<text transform="matrix(1 0 0 1 1229.9189 665.3303)" font-family="'TrebuchetMS'" font-size="14">Schwartzkopffstraße</text>
<text transform="matrix(1 0 0 1 1173.7139 629.3303)" font-family="'TrebuchetMS'" font-size="14">Reinickendorfer Straße</text>
<text transform="matrix(1 0 0 1 1229.9189 581.1604)" font-family="'TrebuchetMS'" font-size="14">Wedding</text>
<text transform="matrix(1 0 0 1 893.9971 672.0002)" font-family="'TrebuchetMS'" font-size="14">Birkenstraße</text>
<text transform="matrix(1 0 0 1 900.8604 767.554)" font-family="'TrebuchetMS'" font-size="14">Turmstraße</text>
<text transform="matrix(1 0 0 1 1072.4663 1373.0002)" font-family="'TrebuchetMS'" font-size="14">Eisenacher</text>
<text transform="matrix(1 0 0 1 1086.0112 1389.8)" font-family="'TrebuchetMS'" font-size="14">Straße</text>
<text transform="matrix(1 0 0 1 1160.6538 1314.7737)" font-family="'TrebuchetMS'" font-size="14">Kleistpark</text>
<text transform="matrix(1 0 0 1 1151.229 1199.4084)" font-family="'TrebuchetMS'" font-size="14">Bülowstraße</text>
<text transform="matrix(1 0 0 1 1246.9775 1227.0002)" font-family="'TrebuchetMS'" font-size="14">Yorckstraße</text>
<text transform="matrix(1 0 0 1 943.9429 476.553)" font-family="'TrebuchetMS'" font-size="14">Amrumer Straße</text>
<text transform="matrix(1 0 0 1 1160.7207 420.0002)" font-family="'TrebuchetMS'" font-size="14">Leopoldplatz</text>
<text transform="matrix(1 0 0 1 1390.5234 590.9475)" font-family="'TrebuchetMS'" font-size="14">Gesundbrunnen</text>
<text transform="matrix(1 0 0 1 1022.5923 393.0002)" font-family="'TrebuchetMS'" font-size="14">Seestraße</text>
<text transform="matrix(1 0 0 1 995.0322 358.385)" font-family="'TrebuchetMS'" font-size="14">Rehberge</text>
<text transform="matrix(1 0 0 1 895.2197 324.0002)" font-family="'TrebuchetMS'" font-size="14">Afrikanische Straße</text>
<text transform="matrix(1 0 0 1 834.9326 287.0002)" font-family="'TrebuchetMS'" font-size="14">Kurt-Schumacher-Platz</text>
<text transform="matrix(1 0 0 1 847.5566 213.9036)" font-family="'TrebuchetMS'" font-size="14">Otisstraße</text>
<text transform="matrix(1 0 0 1 827.0088 249.259)" font-family="'TrebuchetMS'" font-size="14">Scharnweberstraße</text>
<text transform="matrix(1 0 0 1 756.2661 179.0002)" font-family="'TrebuchetMS'" font-size="14">Holzhauser Straße</text>
<text transform="matrix(1 0 0 1 766.2441 142.0002)" font-family="'TrebuchetMS'" font-size="14">Borsigwerke</text>
<line fill="none" stroke="#035D96" stroke-width="8" stroke-miterlimit="10" x1="1095.313" y1="81.103" x2="1095.313" y2="66.103"/>
<text transform="matrix(1 0 0 1 1562 1316.0002)" font-family="'TrebuchetMS'" font-size="14">Platz de </text>
<text transform="matrix(1 0 0 1 1562 1332.8)" font-family="'TrebuchetMS'" font-size="14">Luftbrücke</text>
<text transform="matrix(1 0 0 1 1563.334 1380.6663)" font-family="'TrebuchetMS'" font-size="14">Paradestraße</text>
<text transform="matrix(1 0 0 1 1558.667 1453.4417)" font-family="'TrebuchetMS'" font-size="14">Tempelhof</text>
<text transform="matrix(1 0 0 1 1558.667 1498.0022)" font-family="'TrebuchetMS'" font-size="14">Alt-Tempelhof</text>
<text transform="matrix(1 0 0 1 1561.334 1550.6702)" font-family="'TrebuchetMS'" font-size="14">Kaiserin-Augusta-Straße</text>
<text transform="matrix(1 0 0 1 1561.334 1598.6702)" font-family="'TrebuchetMS'" font-size="14">Ullsteinstraße</text>
<text transform="matrix(1 0 0 1 1560.667 1650.0022)" font-family="'TrebuchetMS'" font-size="14">Westphalweg</text>
<text transform="matrix(1 0 0 1 1652.8174 1199.4084)" font-family="'TrebuchetMS'" font-size="14">Schönleinstraße</text>
<text transform="matrix(1 0 0 1 1566.999 1230.5002)" font-family="'TrebuchetMS'" font-size="14">Gneisenaustraße</text>
<text transform="matrix(1 0 0 1 1666.9365 1287.5881)" font-family="'TrebuchetMS'" font-size="14">Südstern</text>
<text transform="matrix(1 0 0 1 1704.1826 1314.7737)" font-family="'TrebuchetMS'" font-size="14">Boddin-</text>
<text transform="matrix(1 0 0 1 1712.7012 1331.5735)" font-family="'TrebuchetMS'" font-size="14">straße</text>
<text transform="matrix(1 0 0 1 1678.6982 1380.6877)" font-family="'TrebuchetMS'" font-size="14">Leinestraße</text>
<text transform="matrix(1 0 0 1 1727.2129 1469.0315)" font-family="'TrebuchetMS'" font-size="14">Hermannstraße</text>
<text transform="matrix(1 0 0 1 1989.6387 1051.9006)" font-family="'TrebuchetMS'" font-size="14">Warschauer</text>
<text transform="matrix(1 0 0 1 1989.6387 1068.7004)" font-family="'TrebuchetMS'" font-size="14">Straße</text>
<text transform="matrix(1 0 0 1 1786.667 1242.6663)" font-family="'TrebuchetMS'" font-size="14">Hermannplatz</text>
<text transform="matrix(1 0 0 1 1906 1269.3323)" font-family="'TrebuchetMS'" font-size="14">Rathaus</text>
<text transform="matrix(1 0 0 1 1906 1286.1331)" font-family="'TrebuchetMS'" font-size="14">Neukölln</text>
<text transform="matrix(1 0 0 1 1936 1350.0002)" font-family="'TrebuchetMS'" font-size="14">Karl-Marx-</text>
<text transform="matrix(1 0 0 1 1936 1366.8)" font-family="'TrebuchetMS'" font-size="14">Straße</text>
<text transform="matrix(1 0 0 1 1938.5693 1454.5159)" font-family="'TrebuchetMS'" font-size="14">Neukölln</text>
<text transform="matrix(1 0 0 1 1066.624 43.1331)" font-family="'TrebuchetMS'" font-size="14">Rathaus</text>
<text transform="matrix(1 0 0 1 1029.375 59.9338)" font-family="'TrebuchetMS'" font-size="14">Reinickendorf</text>
<text transform="matrix(1 0 0 1 949.4297 124.4397)" font-family="'TrebuchetMS'" font-size="14">Karl-Bonhoeffer-</text>
<text transform="matrix(1 0 0 1 983.6167 141.2405)" font-family="'TrebuchetMS'" font-size="14">Nerveklinik</text>
<text transform="matrix(1 0 0 1 993.2798 186.0002)" font-family="'TrebuchetMS'" font-size="14">Lindauer Allee</text>
<text transform="matrix(1 0 0 1 1022.1426 219.0002)" font-family="'TrebuchetMS'" font-size="14">Paracelsus-Bad</text>
<text transform="matrix(1 0 0 1 1053.5273 254.0002)" font-family="'TrebuchetMS'" font-size="14">Residenzstraße</text>
<text transform="matrix(1 0 0 1 1062.6875 291.0002)" font-family="'TrebuchetMS'" font-size="14">Frany-Neuman-Platz</text>
<text transform="matrix(1 0 0 1 1123.0952 339.7688)" font-family="'TrebuchetMS'" font-size="14">Nauener</text>
<text transform="matrix(1 0 0 1 1143.9102 356.5686)" font-family="'TrebuchetMS'" font-size="14">Platz</text>
<text transform="matrix(1 0 0 1 1384 425.2991)" font-family="'TrebuchetMS'" font-size="14">Pankstraße</text>
<text transform="matrix(1 0 0 1 1936 1498.0022)" font-family="'TrebuchetMS'" font-size="14">Grenzallee</text>
<text transform="matrix(1 0 0 1 1940 1549.0002)" font-family="'TrebuchetMS'" font-size="14">Blaschkoallee</text>
<text transform="matrix(1 0 0 1 1940 1603.0315)" font-family="'TrebuchetMS'" font-size="14">Parachimer Allee</text>
<text transform="matrix(1 0 0 1 1940 1650.0022)" font-family="'TrebuchetMS'" font-size="14">Britz-Süd</text>
<text transform="matrix(1 0 0 1 1940 1697.0002)" font-family="'TrebuchetMS'" font-size="14">Johannisthaler Chausee</text>
<text transform="matrix(1 0 0 1 1961 1740.0002)" font-family="'TrebuchetMS'" font-size="14">Lipschitzallee</text>
<text transform="matrix(1 0 0 1 1996.7266 1779.0002)" font-family="'TrebuchetMS'" font-size="14">Wutzkyallee</text>
<text transform="matrix(1 0 0 1 2027.5117 1808.053)" font-family="'TrebuchetMS'" font-size="14">Zwickauer </text>
<text transform="matrix(1 0 0 1 2027.5117 1824.8528)" font-family="'TrebuchetMS'" font-size="14">Damm</text>
<text transform="matrix(1 0 0 1 758.5581 1455.5315)" font-family="'TrebuchetMS'" font-size="14">Bundesplatz</text>
<path fill="none" stroke="#040000" stroke-width="8" stroke-miterlimit="10" d="M1963.209,1447.031"/>
<g>
	<path fill="#046C38" d="M536.533,931.777c-6.896,0-12.5-5.604-12.5-12.5c0-6.894,5.604-12.5,12.5-12.5
		c6.894,0,12.5,5.606,12.5,12.5C549.034,926.172,543.427,931.777,536.533,931.777z"/>
	<path fill="#FFFFFF" d="M533.369,913.739c0-1.085,0.995-2.012,2.734-2.012c3.072,0,5.694,1.65,7.438,3.526v-3.277
		c-2.012-1.56-4.543-2.486-7.369-2.486c-3.391,0-7.166,2.079-7.166,5.944c0,7.37,11.189,4.725,11.189,8.996
		c0,1.131-1.492,2.19-3.348,2.19c-3.026,0-6.033-1.831-7.686-4.205v3.937c1.741,1.561,4.928,2.803,7.686,2.803
		c4.95,0,7.892-3.525,7.892-6.555C544.738,915.096,533.369,918.306,533.369,913.739z"/>
</g>
<line fill="none" stroke="#E02021" stroke-width="8" stroke-miterlimit="10" x1="536.533" y1="967.067" x2="536.533" y2="952.067"/>
<g>
	<path fill="#046C38" d="M610.328,1077.493c-6.896,0-12.5-5.604-12.5-12.5c0-6.894,5.604-12.5,12.5-12.5
		c6.894,0,12.5,5.606,12.5,12.5C622.828,1071.891,617.222,1077.493,610.328,1077.493z"/>
	<path fill="#FFFFFF" d="M607.163,1059.457c0-1.084,0.995-2.014,2.735-2.014c3.071,0,5.693,1.65,7.437,3.526v-3.277
		c-2.012-1.56-4.543-2.483-7.369-2.483c-3.391,0-7.166,2.078-7.166,5.941c0,7.37,11.189,4.728,11.189,8.996
		c0,1.131-1.492,2.193-3.345,2.193c-3.029,0-6.035-1.831-7.688-4.205v3.934c1.741,1.563,4.928,2.805,7.688,2.805
		c4.947,0,7.889-3.525,7.889-6.557C618.533,1060.814,607.163,1064.024,607.163,1059.457z"/>
</g>
<line fill="none" stroke="#1793C5" stroke-width="8" stroke-miterlimit="10" x1="691.632" y1="1060.4" x2="676.632" y2="1060.4"/>
<g>
	<path fill="#046C38" d="M632.744,1426.998c-6.896,0-12.5-5.604-12.5-12.5s5.604-12.5,12.5-12.5c6.894,0,12.5,5.604,12.5,12.5
		C645.245,1421.394,639.638,1426.998,632.744,1426.998z"/>
	<path fill="#FFFFFF" d="M629.58,1408.961c0-1.085,0.995-2.015,2.734-2.015c3.072,0,5.694,1.65,7.438,3.526v-3.277
		c-2.012-1.56-4.543-2.483-7.369-2.483c-3.391,0-7.166,2.079-7.166,5.941c0,7.37,11.189,4.728,11.189,8.996
		c0,1.131-1.492,2.193-3.346,2.193c-3.028,0-6.034-1.831-7.688-4.205v3.934c1.741,1.563,4.928,2.806,7.688,2.806
		c4.948,0,7.89-3.526,7.89-6.558C640.949,1410.317,629.58,1413.527,629.58,1408.961z"/>
</g>
<g>
	<path fill="#046C38" d="M824.224,1436.561c-6.894,0-12.5-5.605-12.5-12.5s5.606-12.5,12.5-12.5c6.896,0,12.5,5.605,12.5,12.5
		C836.724,1430.952,831.118,1436.561,824.224,1436.561z"/>
	<path fill="#FFFFFF" d="M821.059,1418.522c0-1.085,0.995-2.012,2.735-2.012c3.074,0,5.696,1.647,7.437,3.523v-3.274
		c-2.012-1.563-4.543-2.486-7.366-2.486c-3.394,0-7.166,2.079-7.166,5.944c0,7.37,11.188,4.725,11.188,8.996
		c0,1.131-1.491,2.19-3.345,2.19c-3.029,0-6.035-1.831-7.688-4.205v3.937c1.74,1.561,4.93,2.803,7.688,2.803
		c4.95,0,7.889-3.525,7.889-6.555C832.429,1419.879,821.059,1423.089,821.059,1418.522z"/>
</g>
<line fill="none" stroke="#F5D021" stroke-width="8" stroke-miterlimit="10" x1="1022.695" y1="1447.043" x2="1052.695" y2="1447.043"/>
<g>
	<path fill="#046C38" d="M1072.104,1453.441c-6.894,0-12.5-5.604-12.5-12.5c0-6.894,5.606-12.5,12.5-12.5
		c6.896,0,12.5,5.606,12.5,12.5C1084.605,1447.836,1078.999,1453.441,1072.104,1453.441z"/>
	<path fill="#FFFFFF" d="M1068.939,1435.403c0-1.085,0.996-2.012,2.733-2.012c3.074,0,5.696,1.65,7.438,3.525v-3.276
		c-2.012-1.563-4.543-2.486-7.368-2.486c-3.392,0-7.166,2.079-7.166,5.944c0,7.37,11.188,4.725,11.188,8.996
		c0,1.131-1.491,2.19-3.345,2.19c-3.029,0-6.035-1.831-7.688-4.202v3.934c1.74,1.561,4.93,2.803,7.688,2.803
		c4.95,0,7.891-3.525,7.891-6.555C1080.311,1436.76,1068.939,1439.97,1068.939,1435.403z"/>
</g>
<line fill="none" stroke="#7C6CA4" stroke-width="8" stroke-miterlimit="10" x1="1538.102" y1="1447.031" x2="1553.102" y2="1447.031"/>
<g>
	<path fill="#046C38" d="M1575.834,1436.605c-6.895,0-12.5-5.604-12.5-12.5c0-6.894,5.605-12.5,12.5-12.5s12.5,5.606,12.5,12.5
		C1588.334,1431,1582.729,1436.605,1575.834,1436.605z"/>
	<path fill="#FFFFFF" d="M1572.669,1418.567c0-1.085,0.995-2.012,2.735-2.012c3.074,0,5.692,1.65,7.437,3.525v-3.276
		c-2.012-1.563-4.544-2.486-7.369-2.486c-3.391,0-7.165,2.079-7.165,5.944c0,7.37,11.188,4.725,11.188,8.996
		c0,1.131-1.491,2.19-3.345,2.19c-3.029,0-6.035-1.831-7.688-4.202v3.934c1.74,1.561,4.928,2.803,7.688,2.803
		c4.946,0,7.889-3.525,7.889-6.555C1584.039,1419.924,1572.669,1423.134,1572.669,1418.567z"/>
</g>
<line fill="none" stroke="#035D96" stroke-width="8" stroke-miterlimit="10" x1="1790.74" y1="1447.043" x2="1760.74" y2="1447.043"/>
<g>
	<path fill="#046C38" d="M1808,1453.441c-6.895,0-12.5-5.604-12.5-12.5c0-6.894,5.605-12.5,12.5-12.5s12.5,5.606,12.5,12.5
		C1820.5,1447.836,1814.895,1453.441,1808,1453.441z"/>
	<path fill="#FFFFFF" d="M1804.835,1435.403c0-1.085,0.995-2.012,2.735-2.012c3.074,0,5.692,1.65,7.437,3.525v-3.276
		c-2.012-1.563-4.544-2.486-7.369-2.486c-3.391,0-7.165,2.079-7.165,5.944c0,7.37,11.188,4.725,11.188,8.996
		c0,1.131-1.491,2.19-3.345,2.19c-3.029,0-6.035-1.831-7.688-4.202v3.934c1.74,1.561,4.928,2.803,7.688,2.803
		c4.946,0,7.889-3.525,7.889-6.555C1816.205,1436.76,1804.835,1439.97,1804.835,1435.403z"/>
</g>
<line fill="none" stroke="#1793C5" stroke-width="8" stroke-miterlimit="10" x1="1912.104" y1="1450.819" x2="1927.104" y2="1450.819"/>
<g>
	<path fill="#046C38" d="M1952.5,1440.941c-6.895,0-12.5-5.604-12.5-12.5c0-6.894,5.605-12.5,12.5-12.5s12.5,5.606,12.5,12.5
		C1965,1435.336,1959.395,1440.941,1952.5,1440.941z"/>
	<path fill="#FFFFFF" d="M1949.335,1422.903c0-1.085,0.995-2.012,2.735-2.012c3.074,0,5.692,1.65,7.437,3.525v-3.276
		c-2.012-1.563-4.544-2.486-7.369-2.486c-3.391,0-7.165,2.079-7.165,5.944c0,7.37,11.188,4.725,11.188,8.996
		c0,1.131-1.491,2.19-3.345,2.19c-3.029,0-6.035-1.831-7.688-4.202v3.934c1.74,1.561,4.928,2.803,7.688,2.803
		c4.946,0,7.889-3.525,7.889-6.555C1960.705,1424.26,1949.335,1427.47,1949.335,1422.903z"/>
</g>
<line fill="none" stroke="#53A947" stroke-width="8" stroke-miterlimit="10" x1="2002.113" y1="1091.406" x2="1980.9" y2="1070.193"/>
<g>
	<path fill="#046C38" d="M1972.407,1064.4c-6.896,0-12.5-5.604-12.5-12.5c0-6.894,5.604-12.5,12.5-12.5
		c6.894,0,12.5,5.606,12.5,12.5C1984.907,1058.795,1979.301,1064.4,1972.407,1064.4z"/>
	<path fill="#FFFFFF" d="M1969.242,1046.362c0-1.085,0.994-2.012,2.734-2.012c3.072,0,5.693,1.65,7.438,3.526v-3.277
		c-2.012-1.56-4.544-2.486-7.369-2.486c-3.391,0-7.165,2.079-7.165,5.944c0,7.37,11.188,4.725,11.188,8.996
		c0,1.131-1.491,2.193-3.348,2.193c-3.027,0-6.034-1.832-7.686-4.205v3.934c1.738,1.561,4.928,2.803,7.686,2.803
		c4.949,0,7.891-3.523,7.891-6.555C1980.612,1047.719,1969.242,1050.929,1969.242,1046.362z"/>
</g>
<line fill="none" stroke="#89592D" stroke-width="8" stroke-miterlimit="10" x1="2090.488" y1="974.219" x2="2090.488" y2="959.219"/>
<g>
	<path fill="#046C38" d="M2102.988,1002.931c-6.896,0-12.5-5.605-12.5-12.5c0-6.896,5.604-12.5,12.5-12.5
		c6.894,0,12.5,5.604,12.5,12.5C2115.488,997.323,2109.882,1002.931,2102.988,1002.931z"/>
	<path fill="#FFFFFF" d="M2099.823,984.893c0-1.085,0.995-2.012,2.735-2.012c3.071,0,5.692,1.647,7.437,3.523v-3.274
		c-2.012-1.563-4.544-2.486-7.369-2.486c-3.391,0-7.165,2.079-7.165,5.944c0,7.367,11.188,4.725,11.188,8.993
		c0,1.134-1.491,2.193-3.345,2.193c-3.029,0-6.035-1.831-7.688-4.205v3.937c1.74,1.561,4.928,2.803,7.688,2.803
		c4.946,0,7.889-3.526,7.889-6.556C2111.193,986.246,2099.823,989.459,2099.823,984.893z"/>
</g>
<line fill="none" stroke="#89592D" stroke-width="8" stroke-miterlimit="10" x1="2240.488" y1="974.954" x2="2240.488" y2="959.954"/>
<g>
	<path fill="#046C38" d="M2237.282,1007c-6.896,0-12.5-5.605-12.5-12.5c0-6.896,5.604-12.5,12.5-12.5c6.894,0,12.5,5.604,12.5,12.5
		C2249.782,1001.395,2244.176,1007,2237.282,1007z"/>
	<path fill="#FFFFFF" d="M2234.117,988.962c0-1.085,0.995-2.015,2.732-2.015c3.074,0,5.695,1.65,7.438,3.526v-3.277
		c-2.013-1.56-4.544-2.483-7.369-2.483c-3.392,0-7.165,2.078-7.165,5.941c0,7.37,11.188,4.728,11.188,8.996
		c0,1.131-1.49,2.193-3.347,2.193c-3.028,0-6.034-1.831-7.686-4.205v3.934c1.739,1.563,4.928,2.805,7.686,2.805
		c4.949,0,7.89-3.525,7.89-6.557C2245.487,990.318,2234.117,993.528,2234.117,988.962z"/>
</g>
<line fill="none" stroke="#89592D" stroke-width="8" stroke-miterlimit="10" x1="2533.607" y1="901.684" x2="2544.214" y2="912.291"/>
<g>
	<path fill="#046C38" d="M2561.768,915.496c-6.896,0-12.5-5.604-12.5-12.5c0-6.894,5.604-12.5,12.5-12.5s12.5,5.606,12.5,12.5
		C2574.268,909.894,2568.66,915.496,2561.768,915.496z"/>
	<path fill="#FFFFFF" d="M2558.602,897.461c0-1.086,0.996-2.015,2.735-2.015c3.074,0,5.695,1.65,7.438,3.526v-3.277
		c-2.014-1.56-4.544-2.483-7.369-2.483c-3.393,0-7.165,2.077-7.165,5.941c0,7.37,11.188,4.728,11.188,8.996
		c0,1.131-1.49,2.193-3.347,2.193c-3.026,0-6.032-1.831-7.686-4.205v3.934c1.737,1.563,4.928,2.804,7.686,2.804
		c4.949,0,7.892-3.524,7.892-6.556C2569.972,898.817,2558.602,902.027,2558.602,897.461z"/>
</g>
<line fill="none" stroke="#E02021" stroke-width="8" stroke-miterlimit="10" x1="1728.824" y1="614" x2="1743.824" y2="614"/>
<line fill="none" stroke="#E02021" stroke-width="8" stroke-miterlimit="10" x1="1728.824" y1="559" x2="1743.824" y2="559"/>
<g>
	<path fill="#046C38" d="M1760.104,545.262c-6.895,0-12.5-5.605-12.5-12.5c0-6.896,5.605-12.5,12.5-12.5
		c6.896,0,12.5,5.604,12.5,12.5C1772.604,539.656,1766.998,545.262,1760.104,545.262z"/>
	<path fill="#FFFFFF" d="M1756.939,527.224c0-1.085,0.994-2.012,2.732-2.012c3.074,0,5.695,1.647,7.438,3.523v-3.274
		c-2.012-1.563-4.545-2.486-7.368-2.486c-3.392,0-7.165,2.079-7.165,5.942c0,7.369,11.188,4.727,11.188,8.995
		c0,1.133-1.49,2.193-3.345,2.193c-3.029,0-6.035-1.831-7.687-4.205v3.935c1.738,1.563,4.929,2.805,7.687,2.805
		c4.949,0,7.89-3.526,7.89-6.558C1768.311,528.577,1756.939,531.787,1756.939,527.224z"/>
</g>
<line fill="none" stroke="#E02021" stroke-width="8" stroke-miterlimit="10" x1="1713.824" y1="278.344" x2="1743.824" y2="278.344"/>
<g>
	<path fill="#046C38" d="M1730.213,266.5c-6.895,0-12.5-5.605-12.5-12.5c0-6.896,5.605-12.5,12.5-12.5s12.5,5.604,12.5,12.5
		C1742.713,260.895,1737.105,266.5,1730.213,266.5z"/>
	<path fill="#FFFFFF" d="M1727.048,248.462c0-1.085,0.995-2.012,2.735-2.012c3.074,0,5.695,1.647,7.437,3.523v-3.276
		c-2.012-1.561-4.544-2.484-7.368-2.484c-3.392,0-7.166,2.079-7.166,5.941c0,7.37,11.188,4.728,11.188,8.996
		c0,1.134-1.491,2.193-3.345,2.193c-3.029,0-6.035-1.831-7.688-4.205v3.937c1.74,1.561,4.931,2.803,7.688,2.803
		c4.949,0,7.889-3.526,7.889-6.558C1738.418,249.818,1727.048,253.028,1727.048,248.462z"/>
</g>
<line fill="none" stroke="#1793C5" stroke-width="8" stroke-miterlimit="10" x1="622.667" y1="625.303" x2="633.273" y2="614.696"/>
<g>
	<path fill="#046C38" d="M651.317,603.448c-6.896,0-12.5-5.604-12.5-12.5c0-6.894,5.604-12.5,12.5-12.5
		c6.894,0,12.5,5.606,12.5,12.5C663.817,597.843,658.211,603.448,651.317,603.448z"/>
	<path fill="#FFFFFF" d="M648.152,585.407c0-1.085,0.994-2.012,2.732-2.012c3.074,0,5.696,1.65,7.438,3.526v-3.277
		c-2.013-1.56-4.543-2.486-7.369-2.486c-3.392,0-7.166,2.079-7.166,5.944c0,7.37,11.188,4.725,11.188,8.996
		c0,1.131-1.492,2.19-3.347,2.19c-3.028,0-6.035-1.83-7.686-4.205v3.937c1.738,1.561,4.928,2.803,7.686,2.803
		c4.95,0,7.89-3.523,7.89-6.555C659.521,586.767,648.152,589.977,648.152,585.407z"/>
</g>
<g>
	<path fill="#046C38" d="M1042.052,106.559c-6.894,0-12.5-5.604-12.5-12.5c0-6.894,5.606-12.5,12.5-12.5
		c6.896,0,12.5,5.606,12.5,12.5C1054.553,100.953,1048.946,106.559,1042.052,106.559z"/>
	<path fill="#FFFFFF" d="M1038.888,88.521c0-1.085,0.995-2.012,2.735-2.012c3.074,0,5.695,1.65,7.438,3.526v-3.277
		c-2.013-1.563-4.543-2.486-7.369-2.486c-3.392,0-7.166,2.079-7.166,5.944c0,7.37,11.188,4.725,11.188,8.996
		c0,1.131-1.492,2.19-3.345,2.19c-3.029,0-6.035-1.831-7.688-4.205v3.937c1.741,1.561,4.931,2.803,7.688,2.803
		c4.949,0,7.889-3.523,7.889-6.555C1050.257,89.877,1038.888,93.087,1038.888,88.521z"/>
</g>
<g>
	<path fill="#046C38" d="M794.119,91.103c-6.896,0-12.5-5.604-12.5-12.5c0-6.894,5.604-12.5,12.5-12.5c6.894,0,12.5,5.606,12.5,12.5
		C806.62,85.498,801.013,91.103,794.119,91.103z"/>
	<path fill="#FFFFFF" d="M790.955,73.065c0-1.085,0.995-2.012,2.734-2.012c3.072,0,5.694,1.65,7.438,3.526v-3.277
		c-2.012-1.563-4.543-2.486-7.369-2.486c-3.391,0-7.166,2.079-7.166,5.944c0,7.37,11.189,4.725,11.189,8.996
		c0,1.131-1.492,2.19-3.346,2.19c-3.028,0-6.034-1.828-7.688-4.202v3.934c1.741,1.561,4.928,2.803,7.688,2.803
		c4.948,0,7.89-3.523,7.89-6.555C802.324,74.421,790.955,77.631,790.955,73.065z"/>
</g>
<line fill="none" stroke="#7C6CA4" stroke-width="8" stroke-miterlimit="10" x1="832.48" y1="85.801" x2="814.838" y2="103.444"/>
<line fill="none" stroke="#035D96" stroke-width="8" stroke-miterlimit="10" x1="1082.896" y1="124.44" x2="1067.896" y2="124.44"/>
<line fill="none" stroke="#035D96" stroke-width="8" stroke-miterlimit="10" x1="1183.896" y1="95.655" x2="1183.896" y2="65.655"/>
<g>
	<path fill="#046C38" d="M1182.779,58.952c-6.896,0-12.5-5.605-12.5-12.5c0-6.896,5.604-12.5,12.5-12.5
		c6.894,0,12.5,5.604,12.5,12.5C1195.28,53.347,1189.673,58.952,1182.779,58.952z"/>
	<path fill="#FFFFFF" d="M1179.615,40.914c0-1.085,0.994-2.015,2.734-2.015c3.072,0,5.694,1.65,7.438,3.526V39.15
		c-2.012-1.56-4.543-2.483-7.369-2.483c-3.391,0-7.166,2.079-7.166,5.941c0,7.37,11.189,4.728,11.189,8.996
		c0,1.131-1.492,2.193-3.348,2.193c-3.027,0-6.034-1.831-7.686-4.205v3.934c1.738,1.563,4.928,2.806,7.686,2.806
		c4.95,0,7.891-3.526,7.891-6.558C1190.984,42.271,1179.615,45.48,1179.615,40.914z"/>
</g>
<line fill="none" stroke="#EC651A" stroke-width="8" stroke-miterlimit="10" x1="1004.453" y1="572.061" x2="989.453" y2="572.061"/>
<g>
	<path fill="#046C38" d="M956.384,564.4c-6.894,0-12.5-5.604-12.5-12.5c0-6.894,5.606-12.5,12.5-12.5c6.896,0,12.5,5.606,12.5,12.5
		C968.885,558.795,963.278,564.4,956.384,564.4z"/>
	<path fill="#FFFFFF" d="M953.22,546.362c0-1.085,0.995-2.012,2.735-2.012c3.074,0,5.695,1.65,7.437,3.525V544.6
		c-2.012-1.563-4.543-2.486-7.368-2.486c-3.392,0-7.166,2.079-7.166,5.944c0,7.37,11.188,4.725,11.188,8.996
		c0,1.131-1.492,2.19-3.345,2.19c-3.029,0-6.035-1.831-7.688-4.205v3.937c1.741,1.561,4.931,2.803,7.688,2.803
		c4.95,0,7.889-3.526,7.889-6.555C964.589,547.719,953.22,550.929,953.22,546.362z"/>
</g>
<text transform="matrix(1 0 0 1 905.7529 581.1604)" font-family="'TrebuchetMS'" font-size="14">Westhafen</text>
<g>
	<path fill="#046C38" d="M1333.255,766c-6.894,0-12.5-5.605-12.5-12.5c0-6.896,5.606-12.5,12.5-12.5s12.5,5.604,12.5,12.5
		C1345.755,760.395,1340.148,766,1333.255,766z"/>
	<path fill="#FFFFFF" d="M1330.09,747.962c0-1.085,0.995-2.015,2.735-2.015c3.073,0,5.696,1.65,7.437,3.526v-3.277
		c-2.012-1.56-4.543-2.483-7.369-2.483c-3.391,0-7.166,2.078-7.166,5.941c0,7.37,11.189,4.728,11.189,8.996
		c0,1.131-1.492,2.193-3.346,2.193c-3.028,0-6.034-1.831-7.688-4.205v3.934c1.741,1.563,4.93,2.805,7.688,2.805
		c4.951,0,7.89-3.525,7.89-6.557C1341.46,749.318,1330.09,752.528,1330.09,747.962z"/>
</g>
<line fill="none" stroke="#89592D" stroke-width="8" stroke-miterlimit="10" x1="1455.102" y1="879.75" x2="1455.102" y2="859.856"/>
<line fill="none" stroke="#89592D" stroke-width="8" stroke-miterlimit="10" x1="1350.721" y1="776.054" x2="1320.721" y2="776.054"/>
<g>
	<path fill="#046C38" d="M1421.77,866c-6.896,0-12.5-5.604-12.5-12.5s5.604-12.5,12.5-12.5c6.895,0,12.5,5.604,12.5,12.5
		S1428.662,866,1421.77,866z"/>
	<path fill="#FFFFFF" d="M1418.604,847.962c0-1.085,0.996-2.014,2.735-2.014c3.073,0,5.695,1.65,7.437,3.526v-3.277
		c-2.012-1.56-4.543-2.484-7.367-2.484c-3.393,0-7.165,2.078-7.165,5.942c0,7.37,11.188,4.727,11.188,8.996
		c0,1.131-1.489,2.192-3.345,2.192c-3.027,0-6.035-1.831-7.688-4.205v3.935c1.74,1.563,4.931,2.804,7.688,2.804
		c4.95,0,7.891-3.524,7.891-6.556C1429.975,849.32,1418.604,852.53,1418.604,847.962z"/>
</g>
<line opacity="0.5" fill="none" stroke="#89592D" stroke-width="8" stroke-miterlimit="10" enable-background="new    " x1="1601" y1="891.743" x2="1601" y2="876.743"/>
<line opacity="0.5" fill="none" stroke="#89592D" stroke-width="8" stroke-miterlimit="10" enable-background="new    " x1="1696.469" y1="851.262" x2="1685.862" y2="840.656"/>
<text transform="matrix(1 0 0 1 1577.9023 906.0999)" fill="#AAAAAA" font-family="'TrebuchetMS'" font-size="14">Museum-</text>
<text transform="matrix(1 0 0 1 1591.0137 922.8997)" fill="#AAAAAA" font-family="'TrebuchetMS'" font-size="14">insel</text>
<text transform="matrix(1 0 0 1 1634.6992 821.6809)" fill="#AAAAAA" font-family="'TrebuchetMS'" font-size="14">Berliner</text>
<text transform="matrix(1 0 0 1 1634.9355 838.4817)" fill="#AAAAAA" font-family="'TrebuchetMS'" font-size="14">Rathaus</text>
<g>
	<path fill="#046C38" d="M1523.998,773.666c-6.895,0-12.5-5.604-12.5-12.5s5.605-12.5,12.5-12.5s12.5,5.604,12.5,12.5
		C1536.498,768.061,1530.893,773.666,1523.998,773.666z"/>
	<path fill="#FFFFFF" d="M1520.834,755.628c0-1.085,0.994-2.015,2.734-2.015c3.074,0,5.693,1.65,7.438,3.526v-3.277
		c-2.012-1.56-4.544-2.483-7.369-2.483c-3.391,0-7.166,2.078-7.166,5.941c0,7.37,11.189,4.728,11.189,8.996
		c0,1.131-1.492,2.193-3.346,2.193c-3.029,0-6.035-1.831-7.688-4.205v3.934c1.74,1.563,4.928,2.805,7.688,2.805
		c4.947,0,7.889-3.525,7.889-6.557C1532.203,756.985,1520.834,760.195,1520.834,755.628z"/>
</g>
<line fill="none" stroke="#7C6CA4" stroke-width="8" stroke-miterlimit="10" x1="1506.496" y1="775.625" x2="1495.891" y2="786.231"/>
<g>
	<rect x="48.556" y="80.655" fill="#FFFFFF" stroke="#040000" stroke-miterlimit="10" width="410.978" height="161.175"/>
	<text transform="matrix(1 0 0 1 84.5522 142.0002)" font-family="'TrebuchetMS'" font-size="40">U-bahn Netz Berlin</text>
	<text transform="matrix(1 0 0 1 201.4805 199.5999)" font-family="'TrebuchetMS'" font-size="24">(bis 2016)</text>
</g>
<rect x="2419.881" y="65.655" fill="none" stroke="#000000" stroke-width="2" stroke-miterlimit="10" width="251.119" height="364.346"/>
<text transform="matrix(1 0 0 1 2474.7891 94.6213)" font-family="'TrebuchetMS'" font-size="24">Legend</text>
<line fill="none" stroke="#53A947" stroke-width="8" stroke-miterlimit="10" x1="2453.5" y1="115" x2="2514.5" y2="115"/>
<text transform="matrix(1 0 0 1 2544.5 121.0002)" font-family="'TrebuchetMS'" font-size="24">U1</text>
<line fill="none" stroke="#E02021" stroke-width="8" stroke-miterlimit="10" x1="2453.5" y1="145" x2="2514.5" y2="145"/>
<text transform="matrix(1 0 0 1 2544.5 151.0002)" font-family="'TrebuchetMS'" font-size="24">U2</text>
<line fill="none" stroke="#339393" stroke-width="8" stroke-miterlimit="10" x1="2453.5" y1="175" x2="2514.5" y2="175"/>
<text transform="matrix(1 0 0 1 2544.5 181.0002)" font-family="'TrebuchetMS'" font-size="24">U3</text>
<line fill="none" stroke="#F5D021" stroke-width="8" stroke-miterlimit="10" x1="2453.5" y1="205" x2="2514.5" y2="205"/>
<text transform="matrix(1 0 0 1 2544.5 211.0002)" font-family="'TrebuchetMS'" font-size="24">U4</text>
<line fill="none" stroke="#89592D" stroke-width="8" stroke-miterlimit="10" x1="2453.5" y1="235" x2="2514.5" y2="235"/>
<text transform="matrix(1 0 0 1 2544.5 241.0002)" font-family="'TrebuchetMS'" font-size="24">U5/U55</text>
<line fill="none" stroke="#7C6CA4" stroke-width="8" stroke-miterlimit="10" x1="2453.5" y1="265" x2="2514.5" y2="265"/>
<text transform="matrix(1 0 0 1 2544.5 271.0002)" font-family="'TrebuchetMS'" font-size="24">U6</text>
<line fill="none" stroke="#1793C5" stroke-width="8" stroke-miterlimit="10" x1="2453.5" y1="295" x2="2514.5" y2="295"/>
<text transform="matrix(1 0 0 1 2544.5 301.0002)" font-family="'TrebuchetMS'" font-size="24">U7</text>
<line fill="none" stroke="#035D96" stroke-width="8" stroke-miterlimit="10" x1="2453.5" y1="325" x2="2514.5" y2="325"/>
<text transform="matrix(1 0 0 1 2544.5 331.0002)" font-family="'TrebuchetMS'" font-size="24">U8</text>
<line fill="none" stroke="#EC651A" stroke-width="8" stroke-miterlimit="10" x1="2453.5" y1="355" x2="2514.5" y2="355"/>
<text transform="matrix(1 0 0 1 2544.5 361.0002)" font-family="'TrebuchetMS'" font-size="24">U9</text>
<text transform="matrix(1 0 0 1 2544.5 391.0002)" font-family="'TrebuchetMS'" font-size="18">Austausch mit</text>
<text transform="matrix(1 0 0 1 2544.5 412.5999)" font-family="'TrebuchetMS'" font-size="18">die S-bahn</text>
<g>
	<path fill="#046C38" d="M2484,403.545c-6.895,0-12.5-5.605-12.5-12.5c0-6.896,5.605-12.5,12.5-12.5s12.5,5.604,12.5,12.5
		C2496.5,397.94,2490.895,403.545,2484,403.545z"/>
	<path fill="#FFFFFF" d="M2480.835,385.507c0-1.085,0.995-2.015,2.735-2.015c3.074,0,5.695,1.65,7.437,3.526v-3.277
		c-2.012-1.56-4.544-2.483-7.368-2.483c-3.392,0-7.166,2.079-7.166,5.941c0,7.37,11.188,4.728,11.188,8.996
		c0,1.131-1.491,2.193-3.345,2.193c-3.029,0-6.035-1.831-7.688-4.205v3.934c1.74,1.563,4.931,2.806,7.688,2.806
		c4.949,0,7.889-3.526,7.889-6.558C2492.205,386.864,2480.835,390.073,2480.835,385.507z"/>
</g>
<text transform="matrix(1 0 0 1 1485.5 866.0002)" fill="#AAAAAA" font-family="'TrebuchetMS'" font-size="14">(Dieser   Abschnitt ist im Bau)</text>
<line fill="none" stroke="#7C6CA4" stroke-width="8" stroke-miterlimit="10" x1="1303" y1="570.554" x2="1292.395" y2="581.159"/>
<g>
	<path fill="#046C38" d="M1251.675,565.166c-6.895,0-12.5-5.604-12.5-12.5s5.605-12.5,12.5-12.5c6.896,0,12.5,5.604,12.5,12.5
		C1264.175,559.561,1258.568,565.166,1251.675,565.166z"/>
	<path fill="#FFFFFF" d="M1248.511,547.128c0-1.085,0.994-2.015,2.734-2.015c3.073,0,5.694,1.65,7.438,3.526v-3.277
		c-2.013-1.56-4.545-2.483-7.369-2.483c-3.392,0-7.166,2.078-7.166,5.941c0,7.37,11.188,4.728,11.188,8.996
		c0,1.131-1.492,2.193-3.346,2.193c-3.029,0-6.035-1.831-7.688-4.205v3.934c1.74,1.563,4.928,2.805,7.688,2.805
		c4.948,0,7.889-3.525,7.889-6.557C1259.88,548.485,1248.511,551.695,1248.511,547.128z"/>
</g>
<line fill="none" stroke="#035D96" stroke-width="8" stroke-miterlimit="10" x1="1495.891" y1="582.666" x2="1506.496" y2="572.061"/>
<g>
	<path fill="#046C38" d="M1467.602,577.666c-6.895,0-12.5-5.604-12.5-12.5s5.605-12.5,12.5-12.5c6.896,0,12.5,5.604,12.5,12.5
		C1480.102,572.061,1474.496,577.666,1467.602,577.666z"/>
	<path fill="#FFFFFF" d="M1464.438,559.628c0-1.085,0.994-2.015,2.734-2.015c3.074,0,5.694,1.65,7.438,3.526v-3.277
		c-2.012-1.56-4.543-2.483-7.368-2.483c-3.392,0-7.166,2.078-7.166,5.941c0,7.37,11.188,4.728,11.188,8.996
		c0,1.131-1.492,2.193-3.346,2.193c-3.029,0-6.035-1.831-7.688-4.205v3.934c1.739,1.563,4.928,2.805,7.688,2.805
		c4.948,0,7.889-3.525,7.889-6.557C1475.807,560.985,1464.438,564.195,1464.438,559.628z"/>
</g>
<line fill="none" stroke="#035D96" stroke-width="8" stroke-miterlimit="10" x1="1790.104" y1="882" x2="1775.104" y2="882"/>
<g>
	<path fill="#046C38" d="M1808,870.357c-6.895,0-12.5-5.604-12.5-12.5c0-6.895,5.605-12.5,12.5-12.5s12.5,5.605,12.5,12.5
		C1820.5,864.752,1814.895,870.357,1808,870.357z"/>
	<path fill="#FFFFFF" d="M1804.836,852.319c0-1.085,0.994-2.014,2.734-2.014c3.074,0,5.693,1.649,7.438,3.525v-3.276
		c-2.012-1.561-4.544-2.484-7.369-2.484c-3.391,0-7.166,2.078-7.166,5.942c0,7.37,11.189,4.727,11.189,8.996
		c0,1.131-1.492,2.192-3.346,2.192c-3.029,0-6.035-1.831-7.688-4.205v3.935c1.74,1.563,4.929,2.804,7.688,2.804
		c4.947,0,7.889-3.524,7.889-6.556C1816.205,853.675,1804.836,856.885,1804.836,852.319z"/>
</g>
<text transform="matrix(1 0 0 1 1797.1963 887.1682)" font-family="'TrebuchetMS'" font-size="12">Jannowitzbrücke</text>
<line fill="none" stroke="#1793C5" stroke-width="8" stroke-miterlimit="10" x1="1334.146" y1="1235.803" x2="1323.541" y2="1225.197"/>
<g>
	<path fill="#046C38" d="M1292.395,1259.016c-6.896,0-12.5-5.604-12.5-12.5c0-6.895,5.604-12.5,12.5-12.5
		c6.895,0,12.5,5.605,12.5,12.5S1299.288,1259.016,1292.395,1259.016z"/>
	<path fill="#FFFFFF" d="M1289.229,1240.978c0-1.085,0.996-2.012,2.735-2.012c3.074,0,5.693,1.649,7.437,3.524v-3.275
		c-2.012-1.563-4.543-2.486-7.368-2.486c-3.392,0-7.165,2.079-7.165,5.944c0,7.37,11.188,4.725,11.188,8.996
		c0,1.131-1.49,2.19-3.345,2.19c-3.029,0-6.035-1.831-7.688-4.203v3.935c1.74,1.561,4.929,2.803,7.688,2.803
		c4.947,0,7.89-3.525,7.89-6.555C1300.6,1242.334,1289.229,1245.545,1289.229,1240.978z"/>
</g>
<line fill="none" stroke="#E02021" stroke-width="8" stroke-miterlimit="10" x1="1348.721" y1="1017.5" x2="1348.721" y2="1002.5"/>
<g>
	<path fill="#046C38" d="M1356.361,997.627c-6.896,0-12.5-5.604-12.5-12.5s5.604-12.5,12.5-12.5c6.894,0,12.5,5.604,12.5,12.5
		S1363.254,997.627,1356.361,997.627z"/>
	<path fill="#FFFFFF" d="M1353.195,979.589c0-1.085,0.996-2.014,2.734-2.014c3.073,0,5.695,1.65,7.438,3.526v-3.277
		c-2.012-1.56-4.543-2.484-7.368-2.484c-3.392,0-7.165,2.078-7.165,5.942c0,7.37,11.188,4.727,11.188,8.996
		c0,1.131-1.49,2.192-3.345,2.192c-3.028,0-6.035-1.831-7.687-4.205v3.935c1.74,1.563,4.93,2.804,7.687,2.804
		c4.95,0,7.89-3.524,7.89-6.556C1364.566,980.947,1353.195,984.156,1353.195,979.589z"/>
</g>
<g>
	<path fill="#046C38" d="M936.93,1039.5c-6.894,0-12.5-5.604-12.5-12.5c0-6.894,5.606-12.5,12.5-12.5c6.896,0,12.5,5.606,12.5,12.5
		C949.431,1033.896,943.824,1039.5,936.93,1039.5z"/>
	<path fill="#FFFFFF" d="M933.766,1021.462c0-1.085,0.995-2.012,2.735-2.012c3.074,0,5.695,1.65,7.437,3.525v-3.275
		c-2.012-1.563-4.543-2.486-7.368-2.486c-3.392,0-7.166,2.079-7.166,5.944c0,7.37,11.188,4.725,11.188,8.996
		c0,1.131-1.492,2.19-3.345,2.19c-3.029,0-6.035-1.831-7.688-4.205v3.937c1.741,1.561,4.931,2.803,7.688,2.803
		c4.95,0,7.889-3.526,7.889-6.555C945.135,1022.82,933.766,1026.03,933.766,1021.462z"/>
</g>
</svg>
